<svg width="24" height="24" viewBox="0 0 24 24" fill="none" xmlns="http://www.w3.org/2000/svg">
<path fill-rule="evenodd" clip-rule="evenodd" d="M5.8 4H9.136C10.1301 4 10.936 4.80589 10.936 5.8V7.536C10.936 8.53011 10.1301 9.336 9.136 9.336H5.8C4.80589 9.336 4 8.53011 4 7.536V5.8C4 4.80589 4.80589 4 5.8 4ZM9.136 8.136C9.46557 8.13169 9.73169 7.86557 9.736 7.536V5.8C9.73169 5.47043 9.46557 5.20431 9.136 5.2H5.8C5.47043 5.20431 5.20431 5.47043 5.2 5.8V7.536C5.20431 7.86557 5.47043 8.13169 5.8 8.136H9.136Z" fill="#1C1C1C"/>
<path fill-rule="evenodd" clip-rule="evenodd" d="M14.872 4H17.672C18.6661 4 19.472 4.80589 19.472 5.8V11.264C19.472 12.2581 18.6661 13.064 17.672 13.064H14.872C14.3939 13.0661 13.9349 12.8772 13.5968 12.5392C13.2588 12.2011 13.0698 11.742 13.072 11.264V5.8C13.072 4.80589 13.8779 4 14.872 4ZM17.672 11.864C18.0034 11.864 18.272 11.5954 18.272 11.264V5.8C18.2677 5.47043 18.0016 5.20431 17.672 5.2H14.872C14.5406 5.2 14.272 5.46863 14.272 5.8V11.264C14.2698 11.4238 14.3323 11.5777 14.4453 11.6907C14.5583 11.8037 14.7122 11.8662 14.872 11.864H17.672Z" fill="#1C1C1C"/>
<path fill-rule="evenodd" clip-rule="evenodd" d="M14.872 15.2H17.672C18.6661 15.2 19.472 16.0059 19.472 17V18.2C19.472 19.1941 18.6661 20 17.672 20H14.872C13.8779 20 13.072 19.1941 13.072 18.2V17C13.072 16.0059 13.8779 15.2 14.872 15.2ZM17.672 18.8C18.0016 18.7957 18.2677 18.5296 18.272 18.2V17C18.2677 16.6704 18.0016 16.4043 17.672 16.4H14.872C14.5406 16.4 14.272 16.6686 14.272 17V18.2C14.272 18.5314 14.5406 18.8 14.872 18.8H17.672Z" fill="#1C1C1C"/>
<path fill-rule="evenodd" clip-rule="evenodd" d="M5.8 11.464H9.136C10.1301 11.464 10.936 12.2699 10.936 13.264V18.2C10.936 19.1941 10.1301 20 9.136 20H5.8C4.80589 20 4 19.1941 4 18.2V13.264C4 12.2699 4.80589 11.464 5.8 11.464ZM9.136 18.8C9.46557 18.7957 9.73169 18.5296 9.736 18.2V13.264C9.73169 12.9344 9.46557 12.6683 9.136 12.664H5.8C5.47043 12.6683 5.20431 12.9344 5.2 13.264V18.2C5.20431 18.5296 5.47043 18.7957 5.8 18.8H9.136Z" fill="#1C1C1C"/>
</svg>
