<svg width="32" height="32" viewBox="0 0 32 32" fill="none" xmlns="http://www.w3.org/2000/svg">
<path d="M15.0267 4.0001C13.5307 4.17452 12.1144 4.76768 10.9406 5.71136C9.76676 6.65504 8.88318 7.9109 8.39148 9.33448C7.89978 10.758 7.81991 12.2915 8.16108 13.7585C8.50225 15.2254 9.25058 16.5663 10.32 17.6268C10.8403 18.1293 11.2564 18.7295 11.5447 19.393C11.833 20.0564 11.9877 20.7702 12 21.4934C12.0066 21.4403 12.0066 21.3866 12 21.3334H20C19.9935 21.3866 19.9935 21.4403 20 21.4934C20.003 20.791 20.1446 20.096 20.4169 19.4485C20.6892 18.8009 21.0867 18.2136 21.5867 17.7201C22.807 16.5555 23.628 15.0349 23.9323 13.3757C24.2366 11.7165 24.0086 10.0036 23.281 8.48173C22.5533 6.95986 21.3632 5.70695 19.8807 4.90206C18.3983 4.09716 16.6993 3.78147 15.0267 4.0001Z" fill="#C7DAFF" stroke="black"/>
<path d="M19.9999 21.4931C20.0028 20.7906 20.1445 20.0956 20.4168 19.4481C20.6891 18.8006 21.0866 18.2132 21.5865 17.7197C22.7211 16.6129 23.5014 15.194 23.8283 13.643C24.1552 12.092 24.0139 10.4789 23.4225 9.00829C22.8312 7.5377 21.8162 6.27593 20.5066 5.38309C19.1969 4.49024 17.6515 4.00657 16.0665 3.99344C14.4815 3.98031 12.9283 4.43831 11.6041 5.30934C10.2798 6.18036 9.2441 7.42514 8.62842 8.88574C8.01274 10.3463 7.84482 11.9569 8.14596 13.5131C8.44711 15.0693 9.20374 16.5009 10.3199 17.6264C10.8417 18.1305 11.2588 18.7329 11.5471 19.3987C11.8354 20.0646 11.9893 20.7809 11.9999 21.5064M19.9999 21.4931V25.3331C19.9999 25.6867 19.8594 26.0258 19.6093 26.2759C19.3593 26.5259 19.0202 26.6664 18.6665 26.6664H13.3332C12.9796 26.6664 12.6404 26.5259 12.3904 26.2759C12.1403 26.0258 11.9999 25.6867 11.9999 25.3331V21.5064M19.9999 21.4931C19.9933 21.4399 19.9933 21.3862 19.9999 21.3331H11.9999C12.0065 21.3906 12.0065 21.4488 11.9999 21.5064M17.3332 26.6664H14.6665V27.9997H17.3332V26.6664Z" stroke="black" stroke-linecap="round" stroke-linejoin="round"/>
</svg>
