<svg width="18" height="18" viewBox="0 0 18 18" fill="none" xmlns="http://www.w3.org/2000/svg">
<mask id="mask0_1121_1363" style="mask-type:alpha" maskUnits="userSpaceOnUse" x="0" y="0" width="18" height="18">
<rect width="18" height="18" fill="#D9D9D9"/>
</mask>
<g mask="url(#mask0_1121_1363)">
<path d="M8.4375 16.3125V12.9403L5.81248 15.5279L5.02211 14.7375L8.4375 11.3221V9.56246H6.67787L3.26248 12.9779L2.47211 12.1875L5.05963 9.56246H1.6875V8.4375H5.05963L2.47211 5.81248L3.26248 5.02211L6.67787 8.4375H8.4375V6.67787L5.02211 3.26248L5.81248 2.47211L8.4375 5.05963V1.6875H9.56246V5.05963L12.1875 2.47211L12.9779 3.26248L9.56246 6.67787V8.4375H11.3221L14.7375 5.02211L15.5279 5.81248L12.9403 8.4375H16.3125V9.56246H12.9403L15.5279 12.1875L14.7375 12.9779L11.3221 9.56246H9.56246V11.3221L12.9779 14.7375L12.1875 15.5279L9.56246 12.9403V16.3125L8.4375 16.3125Z" fill="#015D9F"/>
</g>
</svg>
