<svg width="24" height="24" viewBox="0 0 24 24" fill="none" xmlns="http://www.w3.org/2000/svg">
<mask id="mask0_1120_1126" style="mask-type:alpha" maskUnits="userSpaceOnUse" x="0" y="0" width="24" height="24">
<rect width="24" height="24" fill="#D9D9D9"/>
</mask>
<g mask="url(#mask0_1120_1126)">
<path d="M18.4038 8.881C18.0073 9.27435 17.5521 9.57301 17.0381 9.77697C16.5242 9.98094 16.0012 10.0829 15.4691 10.0829C14.9371 10.0829 14.4166 9.98324 13.9076 9.78387C13.3986 9.58452 12.9448 9.28357 12.5461 8.881L10.6711 7.006C10.3735 6.70471 10.0363 6.47875 9.65935 6.3281C9.28243 6.17746 8.89561 6.10215 8.49888 6.10215C8.10213 6.10215 7.71554 6.17746 7.33913 6.3281C6.96271 6.47875 6.62592 6.70471 6.32875 7.006L4.7999 8.5156L4.08643 7.80215L5.59605 6.2733C5.9978 5.87458 6.45163 5.57554 6.95753 5.37617C7.46344 5.17682 7.97679 5.07715 8.49758 5.07715C9.01836 5.07715 9.52822 5.17682 10.0272 5.37617C10.5261 5.57554 10.9766 5.87458 11.3788 6.2733L13.2538 8.1483C13.5698 8.4679 13.9155 8.70261 14.2908 8.85242C14.6661 9.00224 15.0589 9.07715 15.4691 9.07715C15.8794 9.07715 16.2695 9.00182 16.6393 8.85117C17.0092 8.70054 17.3531 8.46625 17.6711 8.1483L19.1999 6.63867L19.9134 7.35215L18.4038 8.881ZM18.4038 13.3041C18.0042 13.7028 17.5492 14.0018 17.0387 14.2012C16.5282 14.4005 16.007 14.5002 15.4749 14.5002C14.9429 14.5002 14.4216 14.4005 13.9111 14.2012C13.4006 14.0018 12.9456 13.7028 12.5461 13.3041L10.6711 11.4291C10.3735 11.1278 10.0363 10.9018 9.65935 10.7512C9.28243 10.6005 8.89561 10.5252 8.49888 10.5252C8.10213 10.5252 7.71554 10.6005 7.33913 10.7512C6.96271 10.9018 6.62592 11.1278 6.32875 11.4291L4.7999 12.9387L4.08643 12.2502L5.59605 10.6964C5.9978 10.2977 6.45163 9.99861 6.95753 9.79925C7.46344 9.5999 7.97679 9.50022 8.49758 9.50022C9.01836 9.50022 9.52822 9.5999 10.0272 9.79925C10.5261 9.99861 10.9766 10.2977 11.3788 10.6964L13.2538 12.5714C13.566 12.891 13.9075 13.1257 14.2783 13.2755C14.6491 13.4253 15.0397 13.5002 15.4499 13.5002C15.8602 13.5002 16.2534 13.4249 16.6297 13.2742C17.006 13.1236 17.3531 12.8893 17.6711 12.5714L19.1999 11.0617L19.9134 11.7752L18.4038 13.3041ZM18.3788 17.7271C17.9798 18.1259 17.5291 18.4249 17.0266 18.6243C16.5242 18.8236 16.007 18.9233 15.4749 18.9233C14.9429 18.9233 14.4214 18.8204 13.9105 18.6146C13.3996 18.4089 12.9448 18.1066 12.5461 17.7079L10.6461 15.8521C10.3485 15.5509 10.0113 15.3249 9.63435 15.1743C9.25743 15.0236 8.87061 14.9483 8.47388 14.9483C8.07713 14.9483 7.69054 15.0236 7.31413 15.1743C6.93771 15.3249 6.60092 15.5509 6.30375 15.8521L4.7749 17.3618L4.08643 16.6733L5.59605 15.1194C5.99547 14.7207 6.44665 14.4217 6.9496 14.2223C7.45257 14.023 7.96293 13.9233 8.48068 13.9233C9.00488 13.9233 9.51784 14.023 10.0196 14.2223C10.5213 14.4217 10.9744 14.7207 11.3788 15.1194L13.2538 16.9944C13.5717 17.3124 13.9156 17.5467 14.2855 17.6973C14.6553 17.848 15.0454 17.9233 15.4557 17.9233C15.8659 17.9233 16.2587 17.8484 16.634 17.6986C17.0093 17.5488 17.355 17.314 17.6711 16.9944L19.1999 15.4848L19.8884 16.1983L18.3788 17.7271Z" fill="#1C1B1F"/>
</g>
</svg>
