<svg width="24" height="24" viewBox="0 0 24 24" fill="none" xmlns="http://www.w3.org/2000/svg">
<mask id="mask0_336_913" style="mask-type:alpha" maskUnits="userSpaceOnUse" x="0" y="0" width="24" height="24">
<rect width="24" height="24" fill="#D9D9D9"/>
</mask>
<g mask="url(#mask0_336_913)">
<path d="M11.25 21.5V17.1442C11.25 16.2237 11.1148 15.5192 10.8443 15.0308C10.5737 14.5423 10.1923 14.0782 9.70004 13.6385L10.7692 12.5692C10.9821 12.7654 11.1946 12.9933 11.4067 13.2529C11.6189 13.5125 11.8167 13.7878 12 14.0789C12.2141 13.7173 12.4612 13.3837 12.7414 13.0779C13.0215 12.7721 13.3122 12.4833 13.6135 12.2116C14.3494 11.5513 14.9693 10.7577 15.4731 9.83075C15.977 8.90382 16.2327 7.42111 16.2404 5.38263L14.4154 7.20765L13.3462 6.15383L17 2.5L20.6538 6.15383L19.6 7.20765L17.7404 5.3634C17.7327 7.67622 17.4189 9.39449 16.799 10.5182C16.1792 11.6419 15.4583 12.5782 14.6365 13.3269C14.084 13.8295 13.6314 14.3243 13.2788 14.8115C12.9263 15.2987 12.75 16.0763 12.75 17.1442V21.5H11.25ZM6.47889 8.14613C6.40581 7.80638 6.35356 7.38522 6.32214 6.88265C6.29074 6.38008 6.26991 5.87367 6.25964 5.3634L4.40002 7.20765L3.34619 6.15383L7.00002 2.5L10.6538 6.15383L9.58464 7.20765L7.75962 5.39803C7.7532 5.85059 7.76827 6.28713 7.80482 6.70765C7.84135 7.12818 7.8859 7.49101 7.93847 7.79613L6.47889 8.14613ZM8.48464 12.4596C8.18336 12.1224 7.89137 11.7285 7.60869 11.2779C7.32599 10.8272 7.09042 10.3275 6.90197 9.77883L8.34617 9.41923C8.48718 9.80513 8.66122 10.1644 8.86827 10.4971C9.07532 10.8298 9.30384 11.1276 9.55384 11.3904L8.48464 12.4596Z" fill="#1C1B1F"/>
</g>
</svg>
