<svg width="18" height="18" viewBox="0 0 18 18" fill="none" xmlns="http://www.w3.org/2000/svg">
<mask id="mask0_483_969" style="mask-type:alpha" maskUnits="userSpaceOnUse" x="0" y="0" width="18" height="18">
<rect width="18" height="18" fill="#D9D9D9"/>
</mask>
<g mask="url(#mask0_483_969)">
<path d="M14.0682 12.9994L13.6024 12.2969C13.3745 12.4094 13.1404 12.495 12.9 12.5537C12.6596 12.6123 12.4106 12.6417 12.1529 12.6417C11.2356 12.6417 10.4598 12.3246 9.8257 11.6905C9.19157 11.0563 8.87451 10.2806 8.87451 9.36332C8.87451 8.45371 9.19157 7.67992 9.8257 7.04194C10.4598 6.40395 11.2293 6.08496 12.1341 6.08496C13.0389 6.08496 13.8052 6.40516 14.4331 7.04554C15.061 7.68592 15.375 8.45851 15.375 9.36332C15.375 9.84409 15.2774 10.2986 15.0822 10.727C14.887 11.1554 14.6105 11.5287 14.2528 11.847L14.7187 12.5494L14.0682 12.9994ZM2.625 12.4989L4.99616 6.22776H5.97259L8.36968 12.4989H7.42356L6.85239 10.9152H4.14231L3.55961 12.4989H2.625ZM12.1341 11.8397C12.3139 11.8397 12.4868 11.8198 12.6526 11.7799C12.8185 11.74 12.9812 11.6816 13.1408 11.6047L12.3966 10.4999L13.0586 10.0614L13.7798 11.1431C14.0115 10.9056 14.1896 10.6345 14.3141 10.3297C14.4387 10.0249 14.5009 9.70275 14.5009 9.36332C14.5009 8.68544 14.274 8.10322 13.8202 7.61669C13.3663 7.13015 12.8043 6.88688 12.1341 6.88688C11.4639 6.88688 10.8988 7.12895 10.4387 7.61309C9.97857 8.09721 9.74852 8.68062 9.74852 9.36332C9.74852 10.046 9.97857 10.6294 10.4387 11.1136C10.8988 11.5977 11.4639 11.8397 12.1341 11.8397ZM4.42209 10.135H6.56827L5.52548 7.29794H5.45047L4.42209 10.135Z" fill="#3702CF"/>
</g>
</svg>
