<svg width="25" height="25" viewBox="0 0 25 25" fill="none" xmlns="http://www.w3.org/2000/svg">
<mask id="mask0_758_546" style="mask-type:alpha" maskUnits="userSpaceOnUse" x="0" y="0" width="25" height="25">
<rect width="24" height="24" transform="matrix(-1 0 0 1 24.7632 0.848633)" fill="#D9D9D9"/>
</mask>
<g mask="url(#mask0_758_546)">
<path d="M15.213 12.8483L7.86299 20.1983C7.61299 20.4483 7.49215 20.7399 7.50049 21.0733C7.50882 21.4066 7.63799 21.6983 7.88799 21.9483C8.13799 22.1983 8.42965 22.3233 8.76299 22.3233C9.09632 22.3233 9.38799 22.1983 9.63799 21.9483L17.338 14.2733C17.538 14.0733 17.688 13.8483 17.788 13.5983C17.888 13.3483 17.938 13.0983 17.938 12.8483C17.938 12.5983 17.888 12.3483 17.788 12.0983C17.688 11.8483 17.538 11.6233 17.338 11.4233L9.63799 3.72325C9.38799 3.47325 9.09215 3.35242 8.75049 3.36075C8.40882 3.36909 8.11299 3.49825 7.86299 3.74825C7.61299 3.99825 7.48799 4.28992 7.48799 4.62325C7.48799 4.95659 7.61299 5.24825 7.86299 5.49826L15.213 12.8483Z" fill="#1C1B1F"/>
</g>
</svg>
