<svg width="24" height="24" viewBox="0 0 24 24" fill="none" xmlns="http://www.w3.org/2000/svg">
<mask id="mask0_483_932" style="mask-type:alpha" maskUnits="userSpaceOnUse" x="0" y="0" width="24" height="24">
<rect x="24" width="24" height="24" transform="rotate(90 24 0)" fill="#D9D9D9"/>
</mask>
<g mask="url(#mask0_483_932)">
<path d="M3 8.69566C3 8.46148 3.0774 8.26779 3.2322 8.11459C3.38702 7.96137 3.57884 7.88476 3.80767 7.88476L18.7115 7.88477C18.9404 7.88477 19.1322 7.96217 19.287 8.11699C19.4418 8.27179 19.5192 8.46362 19.5192 8.69247L19.5192 10.3079L21 10.3079L21 13.6925L19.5192 13.6925L19.5192 15.3118C19.5192 15.5412 19.4418 15.7325 19.287 15.8857C19.1322 16.039 18.9404 16.1156 18.7115 16.1156L3.80767 16.1156C3.57884 16.1156 3.38702 16.0382 3.2322 15.8833C3.0774 15.7285 3 15.5367 3 15.3079L3 8.69566ZM12 8.88479L12 15.1155L18.5385 15.1155L18.5385 8.88479L12 8.88479Z" fill="#1C1B1F"/>
</g>
</svg>
