<svg width="24" height="24" viewBox="0 0 24 24" fill="none" xmlns="http://www.w3.org/2000/svg">
<mask id="mask0_1420_577" style="mask-type:alpha" maskUnits="userSpaceOnUse" x="0" y="0" width="24" height="24">
<rect width="24" height="24" fill="#D9D9D9"/>
</mask>
<g mask="url(#mask0_1420_577)">
<rect x="2" y="2" width="20" height="20" rx="10" fill="#1C1B1F"/>
<mask id="mask1_1420_577" style="mask-type:alpha" maskUnits="userSpaceOnUse" x="3" y="3" width="18" height="18">
<rect x="3" y="3" width="18" height="18" fill="#D9D9D9"/>
</mask>
<g mask="url(#mask1_1420_577)">
<path d="M11.8228 16.7025V13.5759L9.8481 15.5506C9.75527 15.6435 9.63713 15.6899 9.49367 15.6899C9.35021 15.6899 9.23207 15.6435 9.13924 15.5506C9.04641 15.4578 9 15.3397 9 15.1962C9 15.0527 9.04641 14.9346 9.13924 14.8418L11.6203 12.3608L9.13924 9.87975C9.04641 9.78692 9 9.66878 9 9.52532C9 9.38186 9.04641 9.26371 9.13924 9.17089C9.23207 9.07806 9.35021 9.03165 9.49367 9.03165C9.63713 9.03165 9.75527 9.07806 9.8481 9.17089L11.8228 11.1456V8.01899C11.8228 7.86709 11.8734 7.74262 11.9747 7.64557C12.0759 7.54852 12.1941 7.5 12.3291 7.5C12.3966 7.5 12.4599 7.51266 12.519 7.53797C12.5781 7.56329 12.6329 7.60127 12.6835 7.6519L14.8608 9.82911C14.9114 9.87975 14.9473 9.9346 14.9684 9.99367C14.9895 10.0527 15 10.116 15 10.1835C15 10.2511 14.9895 10.3143 14.9684 10.3734C14.9473 10.4325 14.9114 10.4873 14.8608 10.538L13.038 12.3608L14.8608 14.1835C14.9114 14.2342 14.9473 14.289 14.9684 14.3481C14.9895 14.4072 15 14.4705 15 14.538C15 14.6055 14.9895 14.6688 14.9684 14.7278C14.9473 14.7869 14.9114 14.8418 14.8608 14.8924L12.6835 17.0696C12.6329 17.1203 12.5781 17.1582 12.519 17.1835C12.4599 17.2089 12.3966 17.2215 12.3291 17.2215C12.1941 17.2215 12.0759 17.173 11.9747 17.0759C11.8734 16.9789 11.8228 16.8544 11.8228 16.7025ZM12.8354 11.1456L13.7975 10.1835L12.8354 9.24684V11.1456ZM12.8354 15.4747L13.7975 14.538L12.8354 13.5759V15.4747Z" fill="white"/>
</g>
</g>
</svg>
