<svg width="18" height="18" viewBox="0 0 18 18" fill="none" xmlns="http://www.w3.org/2000/svg">
<mask id="mask0_872_810" style="mask-type:alpha" maskUnits="userSpaceOnUse" x="0" y="0" width="18" height="18">
<rect width="18" height="18" fill="#D9D9D9"/>
</mask>
<g mask="url(#mask0_872_810)">
<path d="M7.49998 8.19229C7.69613 8.19229 7.86056 8.12594 7.99326 7.99324C8.12594 7.86055 8.19229 7.69613 8.19229 7.49998C8.19229 7.30383 8.12594 7.13941 7.99326 7.00673C7.86056 6.87403 7.69613 6.80768 7.49998 6.80768C7.30383 6.80768 7.13941 6.87403 7.00671 7.00673C6.87402 7.13941 6.80768 7.30383 6.80768 7.49998C6.80768 7.69613 6.87402 7.86055 7.00671 7.99324C7.13941 8.12594 7.30383 8.19229 7.49998 8.19229ZM7.49998 11.1923C7.69613 11.1923 7.86056 11.1259 7.99326 10.9933C8.12594 10.8606 8.19229 10.6961 8.19229 10.5C8.19229 10.3038 8.12594 10.1394 7.99326 10.0067C7.86056 9.87402 7.69613 9.80768 7.49998 9.80768C7.30383 9.80768 7.13941 9.87402 7.00671 10.0067C6.87402 10.1394 6.80768 10.3038 6.80768 10.5C6.80768 10.6961 6.87402 10.8606 7.00671 10.9933C7.13941 11.1259 7.30383 11.1923 7.49998 11.1923ZM5.24998 7.87498C5.34998 7.87498 5.43748 7.83748 5.51248 7.76248C5.58748 7.68748 5.62498 7.59998 5.62498 7.49998C5.62498 7.39998 5.58748 7.31248 5.51248 7.23748C5.43748 7.16248 5.34998 7.12498 5.24998 7.12498C5.14998 7.12498 5.06248 7.16248 4.98748 7.23748C4.91248 7.31248 4.87498 7.39998 4.87498 7.49998C4.87498 7.59998 4.91248 7.68748 4.98748 7.76248C5.06248 7.83748 5.14998 7.87498 5.24998 7.87498ZM7.49998 13.125C7.59998 13.125 7.68748 13.0875 7.76248 13.0125C7.83748 12.9375 7.87498 12.85 7.87498 12.75C7.87498 12.65 7.83748 12.5625 7.76248 12.4875C7.68748 12.4125 7.59998 12.375 7.49998 12.375C7.39998 12.375 7.31248 12.4125 7.23748 12.4875C7.16248 12.5625 7.12498 12.65 7.12498 12.75C7.12498 12.85 7.16248 12.9375 7.23748 13.0125C7.31248 13.0875 7.39998 13.125 7.49998 13.125ZM5.24998 10.875C5.34998 10.875 5.43748 10.8375 5.51248 10.7625C5.58748 10.6875 5.62498 10.6 5.62498 10.5C5.62498 10.4 5.58748 10.3125 5.51248 10.2375C5.43748 10.1625 5.34998 10.125 5.24998 10.125C5.14998 10.125 5.06248 10.1625 4.98748 10.2375C4.91248 10.3125 4.87498 10.4 4.87498 10.5C4.87498 10.6 4.91248 10.6875 4.98748 10.7625C5.06248 10.8375 5.14998 10.875 5.24998 10.875ZM7.49998 5.62498C7.59998 5.62498 7.68748 5.58748 7.76248 5.51248C7.83748 5.43748 7.87498 5.34998 7.87498 5.24998C7.87498 5.14998 7.83748 5.06248 7.76248 4.98748C7.68748 4.91248 7.59998 4.87498 7.49998 4.87498C7.39998 4.87498 7.31248 4.91248 7.23748 4.98748C7.16248 5.06248 7.12498 5.14998 7.12498 5.24998C7.12498 5.34998 7.16248 5.43748 7.23748 5.51248C7.31248 5.58748 7.39998 5.62498 7.49998 5.62498ZM10.5 8.19229C10.6961 8.19229 10.8606 8.12594 10.9932 7.99324C11.1259 7.86055 11.1923 7.69613 11.1923 7.49998C11.1923 7.30383 11.1259 7.13941 10.9932 7.00673C10.8606 6.87403 10.6961 6.80768 10.5 6.80768C10.3038 6.80768 10.1394 6.87403 10.0067 7.00673C9.87403 7.13941 9.80768 7.30383 9.80768 7.49998C9.80768 7.69613 9.87403 7.86055 10.0067 7.99324C10.1394 8.12594 10.3038 8.19229 10.5 8.19229ZM10.5 5.62498C10.6 5.62498 10.6875 5.58748 10.7625 5.51248C10.8375 5.43748 10.875 5.34998 10.875 5.24998C10.875 5.14998 10.8375 5.06248 10.7625 4.98748C10.6875 4.91248 10.6 4.87498 10.5 4.87498C10.4 4.87498 10.3125 4.91248 10.2375 4.98748C10.1625 5.06248 10.125 5.14998 10.125 5.24998C10.125 5.34998 10.1625 5.43748 10.2375 5.51248C10.3125 5.58748 10.4 5.62498 10.5 5.62498ZM12.75 10.875C12.85 10.875 12.9375 10.8375 13.0125 10.7625C13.0875 10.6875 13.125 10.6 13.125 10.5C13.125 10.4 13.0875 10.3125 13.0125 10.2375C12.9375 10.1625 12.85 10.125 12.75 10.125C12.65 10.125 12.5625 10.1625 12.4875 10.2375C12.4125 10.3125 12.375 10.4 12.375 10.5C12.375 10.6 12.4125 10.6875 12.4875 10.7625C12.5625 10.8375 12.65 10.875 12.75 10.875ZM12.75 7.87498C12.85 7.87498 12.9375 7.83748 13.0125 7.76248C13.0875 7.68748 13.125 7.59998 13.125 7.49998C13.125 7.39998 13.0875 7.31248 13.0125 7.23748C12.9375 7.16248 12.85 7.12498 12.75 7.12498C12.65 7.12498 12.5625 7.16248 12.4875 7.23748C12.4125 7.31248 12.375 7.39998 12.375 7.49998C12.375 7.59998 12.4125 7.68748 12.4875 7.76248C12.5625 7.83748 12.65 7.87498 12.75 7.87498ZM9.00124 16.125C8.01579 16.125 7.08951 15.938 6.22241 15.564C5.3553 15.19 4.60104 14.6824 3.95963 14.0413C3.3182 13.4001 2.81041 12.6462 2.43624 11.7795C2.06208 10.9128 1.875 9.98669 1.875 9.00124C1.875 8.01579 2.062 7.08951 2.436 6.22241C2.81 5.3553 3.31756 4.60104 3.95869 3.95963C4.59983 3.3182 5.35376 2.81041 6.22048 2.43624C7.08719 2.06208 8.01328 1.875 8.99873 1.875C9.98418 1.875 10.9105 2.062 11.7776 2.436C12.6447 2.81 13.3989 3.31756 14.0403 3.95869C14.6818 4.59983 15.1896 5.35376 15.5637 6.22048C15.9379 7.08719 16.125 8.01328 16.125 8.99873C16.125 9.98418 15.938 10.9104 15.564 11.7776C15.19 12.6447 14.6824 13.3989 14.0413 14.0403C13.4001 14.6818 12.6462 15.1896 11.7795 15.5637C10.9128 15.9379 9.98669 16.125 9.00124 16.125ZM8.99998 15C10.675 15 12.0937 14.4187 13.2562 13.2562C14.4187 12.0937 15 10.675 15 8.99998C15 7.32498 14.4187 5.90623 13.2562 4.74373C12.0937 3.58123 10.675 2.99998 8.99998 2.99998C7.32498 2.99998 5.90623 3.58123 4.74373 4.74373C3.58123 5.90623 2.99998 7.32498 2.99998 8.99998C2.99998 10.675 3.58123 12.0937 4.74373 13.2562C5.90623 14.4187 7.32498 15 8.99998 15ZM10.5 13.125C10.6 13.125 10.6875 13.0875 10.7625 13.0125C10.8375 12.9375 10.875 12.85 10.875 12.75C10.875 12.65 10.8375 12.5625 10.7625 12.4875C10.6875 12.4125 10.6 12.375 10.5 12.375C10.4 12.375 10.3125 12.4125 10.2375 12.4875C10.1625 12.5625 10.125 12.65 10.125 12.75C10.125 12.85 10.1625 12.9375 10.2375 13.0125C10.3125 13.0875 10.4 13.125 10.5 13.125ZM10.5 11.1923C10.6961 11.1923 10.8606 11.1259 10.9932 10.9933C11.1259 10.8606 11.1923 10.6961 11.1923 10.5C11.1923 10.3038 11.1259 10.1394 10.9932 10.0067C10.8606 9.87402 10.6961 9.80768 10.5 9.80768C10.3038 9.80768 10.1394 9.87402 10.0067 10.0067C9.87403 10.1394 9.80768 10.3038 9.80768 10.5C9.80768 10.6961 9.87403 10.8606 10.0067 10.9933C10.1394 11.1259 10.3038 11.1923 10.5 11.1923Z" fill="#B00F0F"/>
</g>
</svg>
