<svg width="25" height="25" viewBox="0 0 25 25" fill="none" xmlns="http://www.w3.org/2000/svg">
<mask id="mask0_1420_557" style="mask-type:alpha" maskUnits="userSpaceOnUse" x="0" y="0" width="25" height="25">
<rect x="0.18335" y="0.478516" width="24" height="24" fill="#D9D9D9"/>
</mask>
<g mask="url(#mask0_1420_557)">
<path d="M10.7833 13.8785L8.63335 11.7285C8.45002 11.5452 8.21668 11.4535 7.93335 11.4535C7.65002 11.4535 7.41668 11.5452 7.23335 11.7285C7.05002 11.9118 6.95835 12.1452 6.95835 12.4285C6.95835 12.7118 7.05002 12.9452 7.23335 13.1285L10.0833 15.9785C10.2833 16.1785 10.5167 16.2785 10.7833 16.2785C11.05 16.2785 11.2833 16.1785 11.4833 15.9785L17.1333 10.3285C17.3167 10.1452 17.4083 9.91185 17.4083 9.62852C17.4083 9.34518 17.3167 9.11185 17.1333 8.92852C16.95 8.74518 16.7167 8.65352 16.4333 8.65352C16.15 8.65352 15.9167 8.74518 15.7333 8.92852L10.7833 13.8785ZM5.18335 21.4785C4.63335 21.4785 4.16252 21.2827 3.77085 20.891C3.37918 20.4993 3.18335 20.0285 3.18335 19.4785V5.47852C3.18335 4.92852 3.37918 4.45768 3.77085 4.06602C4.16252 3.67435 4.63335 3.47852 5.18335 3.47852H19.1833C19.7333 3.47852 20.2042 3.67435 20.5958 4.06602C20.9875 4.45768 21.1833 4.92852 21.1833 5.47852V19.4785C21.1833 20.0285 20.9875 20.4993 20.5958 20.891C20.2042 21.2827 19.7333 21.4785 19.1833 21.4785H5.18335ZM5.18335 19.4785H19.1833V5.47852H5.18335V19.4785Z" fill="#1C1B1F"/>
</g>
</svg>
