<svg width="25" height="25" viewBox="0 0 25 25" fill="none" xmlns="http://www.w3.org/2000/svg">
<mask id="mask0_1424_489" style="mask-type:alpha" maskUnits="userSpaceOnUse" x="0" y="0" width="25" height="25">
<rect x="24.4102" y="0.605469" width="24" height="24" transform="rotate(90 24.4102 0.605469)" fill="#D9D9D9"/>
</mask>
<g mask="url(#mask0_1424_489)">
<path d="M12.4101 13.2062L16.3101 9.30625C16.4934 9.12292 16.7268 9.03125 17.0101 9.03125C17.2934 9.03125 17.5268 9.12292 17.7101 9.30625C17.8934 9.48958 17.9851 9.72292 17.9851 10.0063C17.9851 10.2896 17.8934 10.5229 17.7101 10.7063L13.1101 15.3062C13.0101 15.4062 12.9018 15.4771 12.7851 15.5187C12.6684 15.5604 12.5434 15.5812 12.4101 15.5812C12.2768 15.5812 12.1518 15.5604 12.0351 15.5187C11.9184 15.4771 11.8101 15.4062 11.7101 15.3062L7.11011 10.7062C6.92677 10.5229 6.83511 10.2896 6.83511 10.0062C6.83511 9.72292 6.92677 9.48958 7.11011 9.30625C7.29344 9.12292 7.52677 9.03125 7.81011 9.03125C8.09344 9.03125 8.32677 9.12292 8.51011 9.30625L12.4101 13.2062Z" fill="#1C1B1F"/>
</g>
</svg>
