<svg width="18" height="18" viewBox="0 0 18 18" fill="none" xmlns="http://www.w3.org/2000/svg">
<mask id="mask0_872_829" style="mask-type:alpha" maskUnits="userSpaceOnUse" x="0" y="0" width="18" height="18">
<rect width="18" height="18" fill="#D9D9D9"/>
</mask>
<g mask="url(#mask0_872_829)">
<path d="M4.50009 15.4621C3.75442 15.4621 3.11609 15.1966 2.58507 14.6656C2.05407 14.1346 1.78857 13.4962 1.78857 12.7506C1.78857 12.0049 2.05407 11.3666 2.58507 10.8356C3.11609 10.3046 3.75442 10.0391 4.50009 10.0391C5.24575 10.0391 5.88409 10.3046 6.4151 10.8356C6.9461 11.3666 7.2116 12.0049 7.2116 12.7506C7.2116 13.4962 6.9461 14.1346 6.4151 14.6656C5.88409 15.1966 5.24575 15.4621 4.50009 15.4621ZM13.5001 15.4621C12.7544 15.4621 12.1161 15.1966 11.5851 14.6656C11.0541 14.1346 10.7886 13.4962 10.7886 12.7506C10.7886 12.0049 11.0541 11.3666 11.5851 10.8356C12.1161 10.3046 12.7544 10.0391 13.5001 10.0391C14.2457 10.0391 14.8841 10.3046 15.4151 10.8356C15.9461 11.3666 16.2116 12.0049 16.2116 12.7506C16.2116 13.4962 15.9461 14.1346 15.4151 14.6656C14.8841 15.1966 14.2457 15.4621 13.5001 15.4621ZM4.50035 14.3371C4.93671 14.3371 5.31018 14.1818 5.62076 13.871C5.93134 13.5603 6.08664 13.1867 6.08664 12.7503C6.08664 12.3139 5.93126 11.9405 5.62051 11.6299C5.30976 11.3193 4.9362 11.164 4.49982 11.164C4.06346 11.164 3.68999 11.3194 3.37942 11.6302C3.06883 11.9409 2.91354 12.3145 2.91354 12.7508C2.91354 13.1872 3.06891 13.5607 3.37966 13.8712C3.69041 14.1818 4.06397 14.3371 4.50035 14.3371ZM13.5003 14.3371C13.9367 14.3371 14.3102 14.1818 14.6208 13.871C14.9313 13.5603 15.0866 13.1867 15.0866 12.7503C15.0866 12.3139 14.9313 11.9405 14.6205 11.6299C14.3098 11.3193 13.9362 11.164 13.4998 11.164C13.0635 11.164 12.69 11.3194 12.3794 11.6302C12.0688 11.9409 11.9135 12.3145 11.9135 12.7508C11.9135 13.1872 12.0689 13.5607 12.3797 13.8712C12.6904 14.1818 13.064 14.3371 13.5003 14.3371ZM9.00009 11.0313C8.64336 11.0313 8.34072 10.9071 8.09216 10.6585C7.84361 10.4099 7.71933 10.1073 7.71933 9.75058C7.71933 9.39385 7.84361 9.09121 8.09216 8.84264C8.34072 8.59409 8.64336 8.46982 9.00009 8.46982C9.35681 8.46982 9.65946 8.59409 9.90802 8.84264C10.1566 9.09121 10.2808 9.39385 10.2808 9.75058C10.2808 10.1073 10.1566 10.4099 9.90802 10.6585C9.65946 10.9071 9.35681 11.0313 9.00009 11.0313ZM9.00009 7.21209C8.25442 7.21209 7.61609 6.94659 7.08507 6.41559C6.55407 5.88457 6.28857 5.24624 6.28857 4.50058C6.28857 3.75491 6.55407 3.11658 7.08507 2.58556C7.61609 2.05456 8.25442 1.78906 9.00009 1.78906C9.74575 1.78906 10.3841 2.05456 10.9151 2.58556C11.4461 3.11658 11.7116 3.75491 11.7116 4.50058C11.7116 5.24624 11.4461 5.88457 10.9151 6.41559C10.3841 6.94659 9.74575 7.21209 9.00009 7.21209ZM9.00035 6.08713C9.43671 6.08713 9.81018 5.93175 10.1208 5.621C10.4313 5.31025 10.5866 4.93669 10.5866 4.50031C10.5866 4.06395 10.4313 3.69048 10.1205 3.37991C9.80976 3.06932 9.4362 2.91402 8.99982 2.91402C8.56346 2.91402 8.18999 3.0694 7.87942 3.38015C7.56883 3.6909 7.41354 4.06446 7.41354 4.50084C7.41354 4.9372 7.56891 5.31067 7.87966 5.62124C8.19041 5.93183 8.56397 6.08713 9.00035 6.08713Z" fill="#AD0FB0"/>
</g>
</svg>
