<svg width="18" height="18" viewBox="0 0 18 18" fill="none" xmlns="http://www.w3.org/2000/svg">
<mask id="mask0_870_620" style="mask-type:alpha" maskUnits="userSpaceOnUse" x="0" y="0" width="18" height="18">
<rect width="18" height="18" fill="#D9D9D9"/>
</mask>
<g mask="url(#mask0_870_620)">
<path d="M11.0921 12C10.8408 12 10.6266 11.9091 10.4497 11.7274C10.2727 11.5456 10.1842 11.3257 10.1842 11.0676V6.93244C10.1842 6.67432 10.2727 6.45439 10.4497 6.27263C10.6266 6.09088 10.8408 6 11.0921 6H14.0921C14.3434 6 14.5576 6.09088 14.7345 6.27263C14.9115 6.45439 15 6.67432 15 6.93244V11.0676C15 11.3257 14.9115 11.5456 14.7345 11.7274C14.5576 11.9091 14.3434 12 14.0921 12H11.0921ZM11.4079 10.7432H13.7763V7.25675H11.4079V10.7432ZM3.90791 12C3.65658 12 3.44243 11.9091 3.26546 11.7274C3.08849 11.5456 3 11.3257 3 11.0676V6.93244C3 6.67432 3.08849 6.45439 3.26546 6.27263C3.44243 6.09088 3.65658 6 3.90791 6H6.90788C7.15921 6 7.37336 6.09088 7.55033 6.27263C7.7273 6.45439 7.81578 6.67432 7.81578 6.93244V7.78378H6.59211V7.25675H4.22368V10.7432H6.59211V10.2162H7.81578V11.0676C7.81578 11.3257 7.7273 11.5456 7.55033 11.7274C7.37336 11.9091 7.15921 12 6.90788 12H3.90791Z" fill="#3165A3"/>
</g>
</svg>
