<svg width="18" height="18" viewBox="0 0 18 18" fill="none" xmlns="http://www.w3.org/2000/svg">
<mask id="mask0_870_655" style="mask-type:alpha" maskUnits="userSpaceOnUse" x="0" y="0" width="18" height="18">
<rect width="18" height="18" fill="#D9D9D9"/>
</mask>
<g mask="url(#mask0_870_655)">
<path d="M8.99998 16.125C8.06346 16.125 7.26682 15.7966 6.61009 15.1399C5.95336 14.4831 5.625 13.6865 5.625 12.75C5.625 12.1788 5.75746 11.6495 6.02237 11.162C6.28727 10.6745 6.65481 10.2711 7.125 9.95192V3.74998C7.125 3.22596 7.30649 2.78245 7.66946 2.41946C8.03245 2.05649 8.47596 1.875 8.99998 1.875C9.52401 1.875 9.96751 2.05649 10.3305 2.41946C10.6935 2.78245 10.875 3.22596 10.875 3.74998V9.95192C11.3452 10.2711 11.7127 10.6745 11.9776 11.162C12.2425 11.6495 12.375 12.1788 12.375 12.75C12.375 13.6865 12.0466 14.4831 11.3899 15.1399C10.7331 15.7966 9.93651 16.125 8.99998 16.125ZM8.24998 8.39423H9.74998V7.45671H8.99998V6.79326H9.74998V5.20671H8.99998V4.54326H9.74998V3.74998C9.74998 3.53748 9.67811 3.35936 9.53436 3.21561C9.39061 3.07186 9.21248 2.99998 8.99998 2.99998C8.78748 2.99998 8.60936 3.07186 8.46561 3.21561C8.32186 3.35936 8.24998 3.53748 8.24998 3.74998V8.39423Z" fill="#A69465"/>
</g>
</svg>
