<svg width="24" height="24" viewBox="0 0 24 24" fill="none" xmlns="http://www.w3.org/2000/svg">
<mask id="mask0_483_926" style="mask-type:alpha" maskUnits="userSpaceOnUse" x="0" y="0" width="24" height="24">
<rect x="24.0001" width="24" height="24" transform="rotate(90 24.0001 0)" fill="#D9D9D9"/>
</mask>
<g mask="url(#mask0_483_926)">
<path d="M16.4231 8.38479C16.4231 8.24311 16.4711 8.12435 16.5671 8.02852C16.6631 7.93268 16.782 7.88477 16.9238 7.88477C17.0657 7.88477 17.1844 7.93268 17.2799 8.02852C17.3754 8.12435 17.4231 8.24311 17.4231 8.38479L17.4231 11.5002L19.7308 11.5002C19.8725 11.5002 19.9913 11.5481 20.0871 11.6441C20.1829 11.7401 20.2308 11.859 20.2308 12.0008C20.2308 12.1427 20.1829 12.2614 20.0871 12.3569C19.9913 12.4524 19.8725 12.5002 19.7308 12.5002L17.4231 12.5002L17.4231 15.6155C17.4231 15.7572 17.3752 15.876 17.2792 15.9718C17.1832 16.0676 17.0643 16.1156 16.9225 16.1156C16.7806 16.1156 16.6619 16.0676 16.5664 15.9718C16.4709 15.876 16.4231 15.7572 16.4231 15.6155L16.4231 8.38479ZM3.42314 9.61554C3.42314 9.17131 3.58131 8.79102 3.89766 8.47469C4.21399 8.15834 4.59428 8.00016 5.03851 8.00016L13.0001 8.00017C13.6731 8.00017 14.2453 8.23574 14.7164 8.70689C15.1876 9.17804 15.4231 9.75016 15.4231 10.4232L15.4231 13.5771C15.4231 14.2502 15.1876 14.8223 14.7164 15.2934C14.2453 15.7646 13.6731 16.0002 13.0001 16.0002L5.03851 16.0002C4.59428 16.0002 4.21399 15.842 3.89766 15.5256C3.58131 15.2093 3.42314 14.829 3.42314 14.3848L3.42314 9.61554ZM4.42314 9.00016L4.42314 14.3848C4.42314 14.5643 4.48083 14.7117 4.59621 14.8271C4.71159 14.9425 4.85903 15.0002 5.03851 15.0002L13.0001 15.0002C13.4033 15.0002 13.7412 14.8638 14.014 14.591C14.2868 14.3183 14.4231 13.9803 14.4231 13.5771L14.4231 10.4232C14.4231 10.02 14.2868 9.68206 14.014 9.40929C13.7412 9.13654 13.4033 9.00017 13.0001 9.00017L11.7501 9.00017L11.7501 11.0002C11.7501 11.1418 11.7021 11.2606 11.6061 11.3564C11.5101 11.4522 11.3912 11.5002 11.2494 11.5002C11.1075 11.5002 10.9888 11.4522 10.8933 11.3564C10.7978 11.2606 10.7501 11.1418 10.7501 11.0002L10.7501 9.00017L8.09621 9.00017L8.09621 11.0002C8.09621 11.1425 8.04823 11.2614 7.95226 11.3569C7.85631 11.4524 7.7374 11.5002 7.59554 11.5002C7.45367 11.5002 7.33498 11.4522 7.23948 11.3564C7.14397 11.2606 7.09621 11.1418 7.09621 11.0002L7.09621 9.00017L4.42314 9.00016Z" fill="#1C1B1F"/>
</g>
</svg>
