<svg width="18" height="18" viewBox="0 0 18 18" fill="none" xmlns="http://www.w3.org/2000/svg">
<mask id="mask0_1121_1321" style="mask-type:alpha" maskUnits="userSpaceOnUse" x="0" y="0" width="18" height="18">
<rect width="18" height="18" fill="#D9D9D9"/>
</mask>
<g mask="url(#mask0_1121_1321)">
<path d="M5.99998 16.125C5.27812 16.125 4.66016 15.8679 4.14609 15.3539C3.63203 14.8398 3.375 14.2218 3.375 13.5V5.99998C3.375 5.27812 3.63203 4.66016 4.14609 4.14609C4.66016 3.63203 5.27812 3.375 5.99998 3.375H6.9375V1.875H8.06246V3.375H9.9375V1.875H11.0625V3.375H12C12.7218 3.375 13.3398 3.63203 13.8539 4.14609C14.3679 4.66016 14.625 5.27812 14.625 5.99998V13.5C14.625 14.2218 14.3679 14.8398 13.8539 15.3539C13.3398 15.8679 12.7218 16.125 12 16.125H5.99998ZM5.99998 15H12C12.4125 15 12.7656 14.8531 13.0594 14.5594C13.3531 14.2656 13.5 13.9125 13.5 13.5V5.99998C13.5 5.58748 13.3531 5.23436 13.0594 4.94061C12.7656 4.64686 12.4125 4.49998 12 4.49998H5.99998C5.58748 4.49998 5.23436 4.64686 4.94061 4.94061C4.64686 5.23436 4.49998 5.58748 4.49998 5.99998V13.5C4.49998 13.9125 4.64686 14.2656 4.94061 14.5594C5.23436 14.8531 5.58748 15 5.99998 15ZM6.1875 7.31246H11.8125V6.1875H6.1875V7.31246ZM8.99876 13.2476C9.46687 13.2476 9.86295 13.0875 10.187 12.7673C10.511 12.4471 10.673 12.06 10.673 11.6062C10.673 11.2408 10.5671 10.9269 10.3552 10.6645C10.1432 10.4021 9.69152 9.86891 8.99998 9.06491C8.29903 9.86875 7.84495 10.404 7.63774 10.6706C7.43052 10.9372 7.32692 11.2483 7.32692 11.6038C7.32692 12.0593 7.48853 12.4471 7.81176 12.7673C8.13498 13.0875 8.53065 13.2476 8.99876 13.2476Z" fill="#AD0FB0"/>
</g>
</svg>
