<svg width="18" height="18" viewBox="0 0 18 18" fill="none" xmlns="http://www.w3.org/2000/svg">
<mask id="mask0_870_673" style="mask-type:alpha" maskUnits="userSpaceOnUse" x="0" y="0" width="18" height="18">
<rect width="18" height="18" fill="#D9D9D9"/>
</mask>
<g mask="url(#mask0_870_673)">
<path d="M10.7299 13.168C10.9901 13.168 11.2115 13.077 11.3942 12.8949C11.5769 12.7127 11.6682 12.4916 11.6682 12.2314C11.6682 11.9712 11.5772 11.7498 11.395 11.5671C11.2129 11.3844 10.9918 11.2931 10.7316 11.2931C10.4714 11.2931 10.25 11.3841 10.0673 11.5663C9.8846 11.7484 9.79326 11.9695 9.79326 12.2297C9.79326 12.4899 9.88432 12.7113 10.0664 12.894C10.2486 13.0767 10.4697 13.168 10.7299 13.168ZM7.08748 13.1955L11.6956 8.58731L10.9125 7.79694L6.29711 12.4123L7.08748 13.1955ZM7.26838 9.70653C7.52856 9.70653 7.74999 9.61547 7.93267 9.43335C8.11536 9.25122 8.20671 9.03007 8.20671 8.7699C8.20671 8.50972 8.11564 8.28829 7.93352 8.1056C7.75139 7.92292 7.53024 7.83157 7.27007 7.83157C7.00989 7.83157 6.78846 7.92263 6.60577 8.10476C6.42309 8.28687 6.33174 8.50802 6.33174 8.76821C6.33174 9.02838 6.42281 9.24982 6.60493 9.4325C6.78704 9.61519 7.00819 9.70653 7.26838 9.70653ZM8.99865 16.1248C7.39281 16.1248 6.05408 15.5731 4.98246 14.4698C3.91082 13.3664 3.375 11.9931 3.375 10.3498C3.375 9.18636 3.84063 7.91113 4.77188 6.52412C5.70312 5.13709 7.11249 3.6258 8.99998 1.99023C10.8875 3.6258 12.2968 5.13709 13.2281 6.52412C14.1593 7.91113 14.625 9.18636 14.625 10.3498C14.625 11.9931 14.0887 13.3664 13.0162 14.4698C11.9437 15.5731 10.6045 16.1248 8.99865 16.1248ZM8.99998 14.9998C10.3 14.9998 11.375 14.5592 12.225 13.6779C13.075 12.7967 13.5 11.6873 13.5 10.3498C13.5 9.43731 13.1219 8.40606 12.3656 7.25606C11.6094 6.10606 10.4875 4.84981 8.99998 3.48731C7.51248 4.84981 6.39061 6.10606 5.63436 7.25606C4.87811 8.40606 4.49998 9.43731 4.49998 10.3498C4.49998 11.6873 4.92498 12.7967 5.77498 13.6779C6.62498 14.5592 7.69998 14.9998 8.99998 14.9998Z" fill="#0F9DB0"/>
</g>
</svg>
