<svg width="18" height="18" viewBox="0 0 18 18" fill="none" xmlns="http://www.w3.org/2000/svg">
<mask id="mask0_483_979" style="mask-type:alpha" maskUnits="userSpaceOnUse" x="0" y="0" width="18" height="18">
<rect width="18" height="18" fill="#D9D9D9"/>
</mask>
<g mask="url(#mask0_483_979)">
<path d="M10.7299 13.168C10.9901 13.168 11.2115 13.077 11.3942 12.8949C11.5769 12.7127 11.6683 12.4916 11.6683 12.2314C11.6683 11.9712 11.5772 11.7498 11.3951 11.5671C11.2129 11.3844 10.9918 11.2931 10.7316 11.2931C10.4714 11.2931 10.25 11.3841 10.0673 11.5663C9.88463 11.7484 9.79329 11.9695 9.79329 12.2297C9.79329 12.4899 9.88435 12.7113 10.0665 12.894C10.2486 13.0767 10.4697 13.168 10.7299 13.168ZM7.08751 13.1955L11.6957 8.58731L10.9125 7.79694L6.29714 12.4123L7.08751 13.1955ZM7.26841 9.70653C7.52859 9.70653 7.75002 9.61547 7.93271 9.43335C8.11539 9.25122 8.20674 9.03007 8.20674 8.7699C8.20674 8.50972 8.11567 8.28829 7.93355 8.1056C7.75142 7.92292 7.53027 7.83157 7.2701 7.83157C7.00992 7.83157 6.78849 7.92263 6.60581 8.10476C6.42312 8.28687 6.33177 8.50802 6.33177 8.76821C6.33177 9.02838 6.42284 9.24982 6.60496 9.4325C6.78707 9.61519 7.00822 9.70653 7.26841 9.70653ZM8.99868 16.1248C7.39284 16.1248 6.05411 15.5731 4.98249 14.4698C3.91085 13.3664 3.37503 11.9931 3.37503 10.3498C3.37503 9.18636 3.84066 7.91113 4.77191 6.52412C5.70316 5.13709 7.11252 3.6258 9.00001 1.99023C10.8875 3.6258 12.2969 5.13709 13.2281 6.52412C14.1594 7.91113 14.625 9.18636 14.625 10.3498C14.625 11.9931 14.0887 13.3664 13.0162 14.4698C11.9437 15.5731 10.6045 16.1248 8.99868 16.1248ZM9.00001 14.9998C10.3 14.9998 11.375 14.5592 12.225 13.6779C13.075 12.7967 13.5 11.6873 13.5 10.3498C13.5 9.43731 13.1219 8.40606 12.3656 7.25606C11.6094 6.10606 10.4875 4.84981 9.00001 3.48731C7.51251 4.84981 6.39064 6.10606 5.63439 7.25606C4.87814 8.40606 4.50001 9.43731 4.50001 10.3498C4.50001 11.6873 4.92501 12.7967 5.77501 13.6779C6.62501 14.5592 7.70001 14.9998 9.00001 14.9998Z" fill="#02B6CF"/>
</g>
</svg>
