<svg width="25" height="25" viewBox="0 0 25 25" fill="none" xmlns="http://www.w3.org/2000/svg">
<mask id="mask0_958_525" style="mask-type:alpha" maskUnits="userSpaceOnUse" x="0" y="0" width="25" height="25">
<rect x="0.875977" y="0.75" width="24" height="24" fill="#D9D9D9"/>
</mask>
<g mask="url(#mask0_958_525)">
<path d="M5.87598 21.75C5.32598 21.75 4.85514 21.5542 4.46348 21.1625C4.07181 20.7708 3.87598 20.3 3.87598 19.75V5.75C3.87598 5.2 4.07181 4.72917 4.46348 4.3375C4.85514 3.94583 5.32598 3.75 5.87598 3.75H19.876C20.426 3.75 20.8968 3.94583 21.2885 4.3375C21.6801 4.72917 21.876 5.2 21.876 5.75V19.75C21.876 20.3 21.6801 20.7708 21.2885 21.1625C20.8968 21.5542 20.426 21.75 19.876 21.75H5.87598ZM5.87598 19.75H19.876V5.75H5.87598V19.75ZM7.87598 17.75H17.876C18.076 17.75 18.226 17.6583 18.326 17.475C18.426 17.2917 18.4093 17.1167 18.276 16.95L15.526 13.275C15.426 13.1417 15.2926 13.075 15.126 13.075C14.9593 13.075 14.826 13.1417 14.726 13.275L12.126 16.75L10.276 14.275C10.176 14.1417 10.0426 14.075 9.87598 14.075C9.70931 14.075 9.57598 14.1417 9.47598 14.275L7.47598 16.95C7.34264 17.1167 7.32598 17.2917 7.42598 17.475C7.52598 17.6583 7.67598 17.75 7.87598 17.75ZM9.37598 10.75C9.79264 10.75 10.1468 10.6042 10.4385 10.3125C10.7301 10.0208 10.876 9.66667 10.876 9.25C10.876 8.83333 10.7301 8.47917 10.4385 8.1875C10.1468 7.89583 9.79264 7.75 9.37598 7.75C8.95931 7.75 8.60514 7.89583 8.31348 8.1875C8.02181 8.47917 7.87598 8.83333 7.87598 9.25C7.87598 9.66667 8.02181 10.0208 8.31348 10.3125C8.60514 10.6042 8.95931 10.75 9.37598 10.75Z" fill="#1C1B1F"/>
</g>
</svg>
