<svg width="18" height="25" viewBox="0 0 18 25" fill="none" xmlns="http://www.w3.org/2000/svg">
<path d="M13.8555 10.9678C13.8555 7.5559 11.0896 4.79004 7.67773 4.79004C4.26587 4.79004 1.5 7.55591 1.5 10.9678V16.9103C1.5 20.1538 3.99969 22.8135 7.17773 23.0681V24.0709C3.44685 23.8142 0.5 20.7064 0.5 16.9103V10.9678C0.5 7.00362 3.71358 3.79004 7.67773 3.79004C11.6419 3.79004 14.8555 7.00362 14.8555 10.9678V16.4103H13.8555V10.9678Z" stroke="#ff0"/>
<path d="M4.19741 10.9489C4.36268 11.393 4.83962 11.6256 5.26268 11.4684C5.68574 11.3111 5.89471 10.8236 5.72943 10.3794C5.56416 9.93526 5.08722 9.70267 4.66416 9.85991C4.2411 10.0172 4.03213 10.5047 4.19741 10.9489Z" fill="#ff0"/>
<path d="M9.67324 10.9042C9.80844 11.3546 10.2628 11.6163 10.6881 11.4888C11.1133 11.3613 11.3485 10.8928 11.2133 10.4424C11.0781 9.99206 10.6238 9.73033 10.1985 9.85784C9.7732 9.98536 9.53804 10.4538 9.67324 10.9042Z" fill="#ff0"/>
<path d="M6.38906 13.9615C6.04867 13.6881 5.73538 13.1842 5.95169 12.7554C6.13615 12.3908 6.69142 12.3532 6.98331 12.571C7.03798 12.6118 7.13687 12.705 7.27996 12.85C7.4435 13.0159 7.73968 13.0017 7.93839 12.9327C8.15042 12.8591 8.2997 12.6152 8.44897 12.521C8.6244 12.4107 8.95433 12.3955 9.15637 12.474C9.70404 12.687 9.71117 13.2479 9.42022 13.672C8.78841 14.5914 7.20485 14.6171 6.38906 13.9615Z" fill="#ff0"/>
<path d="M13.5653 16.2344V17.2344H8.15627C6.53932 17.2344 5.22852 18.5452 5.22852 20.1621C5.22852 21.7791 6.53932 23.0899 8.15627 23.0899H13.7471L14.2144 24.0899H14.0653H8.15627C5.98703 24.0899 4.22852 22.3314 4.22852 20.1621C4.22852 17.9929 5.98703 16.2344 8.15627 16.2344H13.5653Z" stroke="#ff0"/>
<path d="M16.8703 18.333V21.7254C16.8703 22.7616 16.0303 23.6016 14.9941 23.6016C13.9579 23.6016 13.1179 22.7616 13.1179 21.7254V18.9721C13.1179 17.7594 14.101 16.7764 15.3137 16.7764C16.1734 16.7764 16.8703 17.4733 16.8703 18.333Z" fill="none" stroke="#ff0" stroke-width="2"/>
<path fill-rule="evenodd" clip-rule="evenodd" d="M8.71038 5.07758C9.59404 5.07758 10.3104 4.36124 10.3104 3.47758V3.02224C10.3104 1.62925 9.18114 0.5 7.78814 0.5H6.72439C5.33139 0.5 4.20215 1.62925 4.20215 3.02224V3.47758C4.20215 4.36124 4.91849 5.07758 5.80215 5.07758H8.71038ZM7.11038 3.47758H7.22641H7.28612H7.40215H7.78814H8.71038V3.02224C8.71038 2.5129 8.29748 2.1 7.78814 2.1H6.72439C6.21505 2.1 5.80215 2.5129 5.80215 3.02224V3.47758H6.72439H7.11038ZM8.71062 3.47793H5.80239V4.66643H8.71062V3.47793Z" fill="#ff0"/>
</svg>
