<svg width="18" height="24" viewBox="0 0 18 24" fill="none" xmlns="http://www.w3.org/2000/svg">
<path d="M13.6195 10.3672C13.6195 7.08565 10.9593 4.42544 7.67773 4.42544C4.3962 4.42544 1.73598 7.08565 1.73598 10.3672V16.3097C1.73598 19.5912 4.3962 22.2514 7.67773 22.2514V23.9874C3.43744 23.9874 0 20.55 0 16.3097V10.3672C0 6.1269 3.43744 2.68945 7.67773 2.68945C11.918 2.68945 15.3555 6.12689 15.3555 10.3672V16.3097H13.6195V10.3672Z" fill="#ff0"/>
<path d="M4.19741 10.3483C4.36268 10.7924 4.83962 11.025 5.26268 10.8678C5.68574 10.7105 5.89471 10.223 5.72943 9.77883C5.56416 9.33467 5.08722 9.10208 4.66416 9.25933C4.2411 9.41657 4.03213 9.90411 4.19741 10.3483Z" fill="#ff0"/>
<path d="M9.67324 10.3036C9.80844 10.754 10.2628 11.0158 10.6881 10.8882C11.1133 10.7607 11.3485 10.2922 11.2133 9.84186C11.0781 9.39148 10.6238 9.12974 10.1985 9.25726C9.7732 9.38477 9.53804 9.85326 9.67324 10.3036Z" fill="#ff0"/>
<path d="M6.38906 13.3599C6.04867 13.0866 5.73538 12.5827 5.95169 12.1539C6.13615 11.7892 6.69142 11.7517 6.98331 11.9694C7.03798 12.0103 7.13687 12.1035 7.27996 12.2485C7.4435 12.4144 7.73968 12.4001 7.93839 12.3312C8.15042 12.2575 8.2997 12.0136 8.44897 11.9195C8.6244 11.8092 8.95433 11.794 9.15637 11.8724C9.70404 12.0854 9.71117 12.6464 9.42022 13.0704C8.78841 13.9898 7.20485 14.0155 6.38906 13.3599Z" fill="#ff0"/>
<path d="M13.5653 15.6338V16.3698H8.15627C6.39351 16.3698 4.9645 17.7988 4.9645 19.5615C4.9645 21.3243 6.39351 22.7533 8.15627 22.7533H13.7929L14.2677 23.4893H8.15627C5.98703 23.4893 4.22852 21.7308 4.22852 19.5615C4.22852 17.3923 5.98703 15.6338 8.15627 15.6338H13.5653Z" fill="#ff0" stroke="#ff0"/>
<path d="M17.0023 17.7324V21.1249C17.0023 22.2339 16.1032 23.133 14.9941 23.133C13.885 23.133 12.9859 22.2339 12.9859 21.1249V18.3715C12.9859 17.0859 14.0281 16.0438 15.3137 16.0438C16.2463 16.0438 17.0023 16.7998 17.0023 17.7324Z" fill="none" stroke="#ff0" stroke-width="1.73598"/>
<path d="M9.75611 2.22423C9.75611 0.995822 8.76028 0 7.53188 0H6.46813C5.23972 0 4.2439 0.995822 4.2439 2.22423V2.67957V3.86866H5.54625L5.54589 2.22423C5.54589 1.84504 5.77474 1.51929 6.10186 1.37758C6.21413 1.32895 6.33798 1.30199 6.46813 1.30199H7.53188C7.66202 1.30199 7.78587 1.32895 7.89814 1.37758C8.22527 1.51929 8.45412 1.84504 8.45412 2.22423L8.45448 3.86866H9.75611V2.22423Z" fill="#ff0"/>
</svg>
