<svg width="18" height="24" viewBox="0 0 18 24" fill="none" xmlns="http://www.w3.org/2000/svg">
<rect x="0.867992" y="3.55745" width="13.6195" height="19.562" rx="6.80974" fill="#FAFAFA" stroke="#0B289A" stroke-width="1.73598"/>
<path d="M4.19747 10.3483C4.36274 10.7924 4.83968 11.025 5.26274 10.8678C5.6858 10.7105 5.89477 10.223 5.7295 9.77883C5.56422 9.33467 5.08728 9.10208 4.66422 9.25933C4.24117 9.41657 4.03219 9.90411 4.19747 10.3483Z" fill="#0B289A"/>
<path d="M9.6733 10.3036C9.8085 10.754 10.2629 11.0158 10.6881 10.8882C11.1134 10.7607 11.3486 10.2922 11.2134 9.84186C11.0782 9.39148 10.6238 9.12974 10.1985 9.25726C9.77326 9.38477 9.5381 9.85326 9.6733 10.3036Z" fill="#0B289A"/>
<path d="M6.38918 13.3599C6.0488 13.0866 5.73551 12.5827 5.95181 12.1539C6.13627 11.7892 6.69154 11.7517 6.98343 11.9694C7.03811 12.0103 7.13699 12.1035 7.28008 12.2485C7.44362 12.4144 7.7398 12.4001 7.93852 12.3312C8.15054 12.2575 8.29982 12.0136 8.4491 11.9195C8.62452 11.8092 8.95445 11.794 9.15649 11.8724C9.70416 12.0854 9.71129 12.6464 9.42034 13.0704C8.78853 13.9898 7.20497 14.0155 6.38918 13.3599Z" fill="#0B289A"/>
<path d="M4.59663 19.5615C4.59663 17.5955 6.19039 16.0018 8.1564 16.0018H14.0655C15.5995 16.0018 16.843 17.2453 16.843 18.7794V20.3437C16.843 21.8777 15.5995 23.1213 14.0655 23.1213H8.1564C6.19039 23.1213 4.59663 21.5276 4.59663 19.5615Z" fill="#FAFAFA" stroke="#0B289A" stroke-width="1.73598"/>
<path d="M12.986 18.3715C12.986 17.0859 14.0282 16.0438 15.3138 16.0438C16.2464 16.0438 17.0024 16.7998 17.0024 17.7324V21.1249C17.0024 22.2339 16.1033 23.133 14.9942 23.133C13.8851 23.133 12.986 22.2339 12.986 21.1249V18.3715Z" fill="#FAFAFA" stroke="#0B289A" stroke-width="1.73598"/>
<path fill-rule="evenodd" clip-rule="evenodd" d="M8.45412 3.98156C9.17319 3.98156 9.75611 3.39864 9.75611 2.67957V2.22423C9.75611 0.995822 8.76028 0 7.53188 0H6.46813C5.23972 0 4.2439 0.995822 4.2439 2.22423V2.67957C4.2439 3.39864 4.82682 3.98156 5.54589 3.98156H8.45412ZM7.89814 1.37758C8.22527 1.51929 8.45412 1.84504 8.45412 2.22423V2.67957H7.15213H6.84787H5.54589V2.22423C5.54589 1.84504 5.77474 1.51929 6.10186 1.37758C6.21413 1.32895 6.33798 1.30199 6.46813 1.30199H7.53188C7.66202 1.30199 7.78587 1.32895 7.89814 1.37758ZM8.45448 2.68015H5.54625V3.86866H8.45448V2.68015Z" fill="#0B289A"/>
</svg>
