<svg width="18" height="25" viewBox="0 0 18 25" fill="none" xmlns="http://www.w3.org/2000/svg">
<path d="M13.3555 10.4678C13.3555 7.33205 10.8135 4.79004 7.67773 4.79004C4.54201 4.79004 2 7.33205 2 10.4678V16.4103C2 19.546 4.54201 22.088 7.67773 22.088V24.088C3.43744 24.088 0 20.6506 0 16.4103V10.4678C0 6.22748 3.43744 2.79004 7.67773 2.79004C11.918 2.79004 15.3555 6.22748 15.3555 10.4678V16.4103H13.3555V10.4678Z" fill="#1C1B1F"/>
<path d="M13.5653 15.7344V16.7344H8.15627C6.53932 16.7344 5.22852 18.0452 5.22852 19.6621C5.22852 21.2791 6.53932 22.5899 8.15627 22.5899H13.7471L14.2144 23.5899H14.0653H8.15627C5.98703 23.5899 4.22852 21.8314 4.22852 19.6621C4.22852 17.4929 5.98703 15.7344 8.15627 15.7344H13.5653Z" stroke="#1C1B1F"/>
<path d="M16.8703 17.833V21.2254C16.8703 22.2616 16.0303 23.1016 14.9941 23.1016C13.9579 23.1016 13.1179 22.2616 13.1179 21.2254V18.4721C13.1179 17.2594 14.101 16.2764 15.3137 16.2764C16.1734 16.2764 16.8703 16.9733 16.8703 17.833Z" stroke="#1C1B1F" stroke-width="2"/>
<path fill-rule="evenodd" clip-rule="evenodd" d="M8.71038 4.57758C9.59404 4.57758 10.3104 3.86124 10.3104 2.97758V2.52224C10.3104 1.12925 9.18114 0 7.78814 0H6.72439C5.33139 0 4.20215 1.12925 4.20215 2.52224V2.97758C4.20215 3.86124 4.91849 4.57758 5.80215 4.57758H8.71038ZM7.11038 2.97758H7.22641H7.28612H7.40215H7.78814H8.71038V2.52224C8.71038 2.0129 8.29748 1.6 7.78814 1.6H6.72439C6.21505 1.6 5.80215 2.0129 5.80215 2.52224V2.97758H6.72439H7.11038ZM8.71062 2.97793H5.80239V4.16643H8.71062V2.97793Z" fill="#1C1B1F"/>
</svg>
