<svg width="24" height="24" viewBox="0 0 24 24" fill="none" xmlns="http://www.w3.org/2000/svg">
<mask id="mask0_998_739" style="mask-type:alpha" maskUnits="userSpaceOnUse" x="0" y="0" width="24" height="24">
<rect width="24" height="24" fill="#D9D9D9"/>
</mask>
<g mask="url(#mask0_998_739)">
<path d="M7 14.4231C6.32693 14.4231 5.75483 14.1876 5.28368 13.7164C4.81254 13.2453 4.57698 12.6732 4.57698 12.0001C4.57698 11.327 4.81254 10.7549 5.28368 10.2838C5.75483 9.81266 6.32693 9.57709 7 9.57709C7.67307 9.57709 8.24518 9.81266 8.71633 10.2838C9.18746 10.7549 9.42303 11.327 9.42303 12.0001C9.42303 12.6732 9.18746 13.2453 8.71633 13.7164C8.24518 14.1876 7.67307 14.4231 7 14.4231ZM7 17.3655C8.2 17.3655 9.26698 17.0244 10.201 16.3424C11.1349 15.6603 11.7654 14.7962 12.0923 13.7501H13.6924L14.877 14.8097C14.9641 14.8841 15.0564 14.9389 15.1539 14.9741C15.2513 15.0094 15.3571 15.027 15.4712 15.027C15.5853 15.027 15.6911 15.0094 15.7885 14.9741C15.8859 14.9389 15.9782 14.8809 16.0654 14.8001L17.3943 13.6251L18.875 14.7789C18.9686 14.8494 19.0715 14.9039 19.1837 14.9424C19.2958 14.9808 19.409 14.9917 19.5231 14.9751C19.6372 14.9584 19.7436 14.9257 19.8423 14.877C19.941 14.8283 20.0288 14.7603 20.1058 14.6731L21.9519 12.6174C22.0352 12.5238 22.0961 12.4251 22.1346 12.3213C22.173 12.2174 22.1923 12.1052 22.1923 11.9847C22.1923 11.8642 22.1705 11.7546 22.1269 11.6559C22.0833 11.5572 22.0198 11.4661 21.9365 11.3828L21.075 10.5213C20.9814 10.4277 20.8785 10.3591 20.7663 10.3155C20.6541 10.2719 20.5378 10.2501 20.4173 10.2501H12.0923C11.7756 9.24502 11.158 8.39118 10.2394 7.68862C9.32082 6.98605 8.24102 6.63477 7 6.63477C5.50002 6.63477 4.2308 7.154 3.19235 8.19247C2.15388 9.23092 1.63465 10.5001 1.63465 12.0001C1.63465 13.5001 2.15388 14.7693 3.19235 15.8078C4.2308 16.8462 5.50002 17.3655 7 17.3655Z" fill="#1C1B1F"/>
</g>
</svg>
