<svg width="24" height="24" viewBox="0 0 24 24" fill="none" xmlns="http://www.w3.org/2000/svg">
<mask id="mask0_483_1005" style="mask-type:alpha" maskUnits="userSpaceOnUse" x="0" y="0" width="24" height="24">
<rect width="24" height="24" fill="#D9D9D9"/>
</mask>
<g mask="url(#mask0_483_1005)">
<path d="M12.0017 11.8654C12.4993 11.8654 12.9247 11.6882 13.2779 11.3339C13.6311 10.9795 13.8077 10.5536 13.8077 10.056C13.8077 9.55839 13.6305 9.133 13.2762 8.7798C12.9219 8.4266 12.4959 8.25 11.9983 8.25C11.5007 8.25 11.0753 8.42717 10.7221 8.7815C10.3689 9.13583 10.1923 9.56179 10.1923 10.0594C10.1923 10.557 10.3695 10.9824 10.7238 11.3356C11.0782 11.6888 11.5041 11.8654 12.0017 11.8654ZM12 19.5135C13.9564 17.7622 15.4535 16.0824 16.4914 14.474C17.5292 12.8657 18.0481 11.457 18.0481 10.2481C18.0481 8.42498 17.4689 6.92627 16.3106 5.7519C15.1523 4.57753 13.7154 3.99035 12 3.99035C10.2846 3.99035 8.84777 4.57753 7.68944 5.7519C6.53111 6.92627 5.95194 8.42498 5.95194 10.2481C5.95194 11.457 6.47085 12.8657 7.50867 14.474C8.5465 16.0824 10.0436 17.7622 12 19.5135ZM12 21.5096C9.48337 19.3288 7.59619 17.2993 6.33849 15.4211C5.08081 13.5429 4.45197 11.8186 4.45197 10.2481C4.45197 7.94038 5.19844 6.07213 6.69139 4.64328C8.18432 3.21443 9.95387 2.5 12 2.5C14.0462 2.5 15.8157 3.21443 17.3086 4.64328C18.8016 6.07213 19.5481 7.94038 19.5481 10.2481C19.5481 11.8186 18.9192 13.5429 17.6615 15.4211C16.4038 17.2993 14.5167 19.3288 12 21.5096Z" fill="#ff0"/>
</g>
</svg>
