<svg width="25" height="25" viewBox="0 0 25 25" fill="none" xmlns="http://www.w3.org/2000/svg">
<mask id="mask0_743_511" style="mask-type:alpha" maskUnits="userSpaceOnUse" x="0" y="0" width="25" height="25">
<rect x="0.876221" y="0.643555" width="24" height="24" fill="#D9D9D9"/>
</mask>
<g mask="url(#mask0_743_511)">
<path d="M20.0723 17.2046L18.9877 16.12C19.2711 15.62 19.49 15.0723 19.6445 14.4768C19.799 13.8812 19.8762 13.2867 19.8762 12.6931C19.8762 10.7598 19.1929 9.10978 17.8262 7.74311C16.4596 6.37645 14.8096 5.69311 12.8762 5.69311C12.2762 5.69311 11.6833 5.77036 11.0974 5.92484C10.5115 6.07934 9.96852 6.29826 9.46852 6.58159L8.38394 5.49699C8.96728 5.14699 9.56183 4.86815 10.1676 4.66046C10.7734 4.45276 11.4262 4.30725 12.1262 4.22391V3.24314C12.1262 3.03034 12.198 2.85214 12.3416 2.70854C12.4852 2.56496 12.6634 2.49316 12.8762 2.49316C13.089 2.49316 13.2672 2.56496 13.4108 2.70854C13.5544 2.85214 13.6262 3.03034 13.6262 3.24314V4.22391C15.7095 4.43801 17.4634 5.25724 18.8877 6.68159C20.3121 8.10596 21.1313 9.85981 21.3454 11.9431H22.3262C22.539 11.9431 22.7172 12.0149 22.8608 12.1585C23.0044 12.3021 23.0762 12.4803 23.0762 12.6931C23.0762 12.9059 23.0044 13.0841 22.8608 13.2277C22.7172 13.3713 22.539 13.4431 22.3262 13.4431H21.3454C21.2621 14.1431 21.1166 14.7992 20.9089 15.4114C20.7012 16.0235 20.4223 16.6213 20.0723 17.2046ZM12.1262 22.1431V21.1623C10.0429 20.9482 8.28906 20.129 6.8647 18.7046C5.44034 17.2803 4.62112 15.5264 4.40702 13.4431H3.42624C3.21343 13.4431 3.03523 13.3713 2.89164 13.2277C2.74806 13.0841 2.67627 12.9059 2.67627 12.6931C2.67627 12.4803 2.74806 12.3021 2.89164 12.1585C3.03523 12.0149 3.21343 11.9431 3.42624 11.9431H4.40702C4.49035 11.1662 4.66151 10.4332 4.92049 9.74409C5.17946 9.05497 5.50959 8.41875 5.91087 7.83541L3.57242 5.49696C3.43395 5.3585 3.36312 5.18446 3.35992 4.97484C3.35672 4.76524 3.42755 4.588 3.57242 4.44314C3.71729 4.29827 3.89292 4.22584 4.09932 4.22584C4.30574 4.22584 4.48138 4.29827 4.62624 4.44314L21.1012 20.9181C21.2563 21.0732 21.3339 21.253 21.3339 21.4575C21.3339 21.662 21.2563 21.8418 21.1012 21.9969C20.9461 22.1354 20.7663 22.2088 20.5618 22.2171C20.3573 22.2254 20.1775 22.152 20.0224 21.9969L17.7339 19.6585C17.1506 20.0597 16.5144 20.3899 15.8252 20.6488C15.1361 20.9078 14.4031 21.079 13.6262 21.1623V22.1431C13.6262 22.3559 13.5544 22.5341 13.4108 22.6777C13.2672 22.8213 13.089 22.8931 12.8762 22.8931C12.6634 22.8931 12.4852 22.8213 12.3416 22.6777C12.198 22.5341 12.1262 22.3559 12.1262 22.1431ZM12.8762 19.6931C13.5532 19.6931 14.2262 19.5886 14.8955 19.3796C15.5647 19.1707 16.1493 18.9021 16.6493 18.5739L6.99547 8.92001C6.66727 9.42001 6.39868 9.99982 6.18969 10.6594C5.98071 11.3191 5.87622 11.9969 5.87622 12.6931C5.87622 14.6264 6.55955 16.2764 7.92622 17.6431C9.29289 19.0098 10.9429 19.6931 12.8762 19.6931Z" fill="#FF0000"/>
</g>
</svg>
