<svg width="24" height="24" viewBox="0 0 24 24" fill="none" xmlns="http://www.w3.org/2000/svg">
<mask id="mask0_1403_524" style="mask-type:alpha" maskUnits="userSpaceOnUse" x="0" y="0" width="24" height="24">
<rect width="24" height="24" fill="#D9D9D9"/>
</mask>
<g mask="url(#mask0_1403_524)">
<path d="M12 19.35C14.0333 17.4833 15.5417 15.7875 16.525 14.2625C17.5083 12.7375 18 11.3833 18 10.2C18 8.38333 17.4208 6.89583 16.2625 5.7375C15.1042 4.57917 13.6833 4 12 4C10.3167 4 8.89583 4.57917 7.7375 5.7375C6.57917 6.89583 6 8.38333 6 10.2C6 11.3833 6.49167 12.7375 7.475 14.2625C8.45833 15.7875 9.96667 17.4833 12 19.35ZM12 21.325C11.7667 21.325 11.5333 21.2833 11.3 21.2C11.0667 21.1167 10.8583 20.9917 10.675 20.825C9.59167 19.825 8.63333 18.85 7.8 17.9C6.96667 16.95 6.27083 16.0292 5.7125 15.1375C5.15417 14.2458 4.72917 13.3875 4.4375 12.5625C4.14583 11.7375 4 10.95 4 10.2C4 7.7 4.80417 5.70833 6.4125 4.225C8.02083 2.74167 9.88333 2 12 2C14.1167 2 15.9792 2.74167 17.5875 4.225C19.1958 5.70833 20 7.7 20 10.2C20 10.95 19.8542 11.7375 19.5625 12.5625C19.2708 13.3875 18.8458 14.2458 18.2875 15.1375C17.7292 16.0292 17.0333 16.95 16.2 17.9C15.3667 18.85 14.4083 19.825 13.325 20.825C13.1417 20.9917 12.9333 21.1167 12.7 21.2C12.4667 21.2833 12.2333 21.325 12 21.325Z" fill="#1C1B1F"/>
</g>
<mask id="mask1_1403_524" style="mask-type:alpha" maskUnits="userSpaceOnUse" x="8" y="6" width="8" height="8">
<rect x="8" y="6" width="8" height="8" fill="#D9D9D9"/>
</mask>
<g mask="url(#mask1_1403_524)">
<path d="M11.3752 13.3337C11.2919 13.3337 11.2196 13.3059 11.1585 13.2503C11.0974 13.1948 11.0613 13.1253 11.0502 13.042L10.9502 12.267C10.878 12.2392 10.8099 12.2059 10.746 12.167C10.6821 12.1281 10.6196 12.0864 10.5585 12.042L9.83353 12.342C9.75575 12.3753 9.67797 12.3795 9.60019 12.3545C9.52242 12.3295 9.4613 12.2809 9.41686 12.2087L8.80019 11.1337C8.75575 11.0614 8.74186 10.9837 8.75853 10.9003C8.77519 10.817 8.81686 10.7503 8.88353 10.7003L9.50853 10.2253C9.50297 10.1864 9.50019 10.1489 9.50019 10.1128V9.88783C9.50019 9.85171 9.50297 9.81421 9.50853 9.77533L8.88353 9.30033C8.81686 9.25033 8.77519 9.18366 8.75853 9.10033C8.74186 9.01699 8.75575 8.93921 8.80019 8.86699L9.41686 7.79199C9.4613 7.71977 9.52242 7.67116 9.60019 7.64616C9.67797 7.62116 9.75575 7.62533 9.83353 7.65866L10.5585 7.95866C10.6196 7.91421 10.6835 7.87255 10.7502 7.83366C10.8169 7.79477 10.8835 7.76144 10.9502 7.73366L11.0502 6.95866C11.0613 6.87533 11.0974 6.80588 11.1585 6.75033C11.2196 6.69477 11.2919 6.66699 11.3752 6.66699H12.6252C12.7085 6.66699 12.7807 6.69477 12.8419 6.75033C12.903 6.80588 12.9391 6.87533 12.9502 6.95866L13.0502 7.73366C13.1224 7.76144 13.1905 7.79477 13.2544 7.83366C13.3182 7.87255 13.3807 7.91421 13.4419 7.95866L14.1669 7.65866C14.2446 7.62533 14.3224 7.62116 14.4002 7.64616C14.478 7.67116 14.5391 7.71977 14.5835 7.79199L15.2002 8.86699C15.2446 8.93921 15.2585 9.01699 15.2419 9.10033C15.2252 9.18366 15.1835 9.25033 15.1169 9.30033L14.4919 9.77533C14.4974 9.81421 14.5002 9.85171 14.5002 9.88783V10.1128C14.5002 10.1489 14.4946 10.1864 14.4835 10.2253L15.1085 10.7003C15.1752 10.7503 15.2169 10.817 15.2335 10.9003C15.2502 10.9837 15.2363 11.0614 15.1919 11.1337L14.5752 12.2003C14.5307 12.2725 14.4682 12.3225 14.3877 12.3503C14.3071 12.3781 14.228 12.3753 14.1502 12.342L13.4419 12.042C13.3807 12.0864 13.3169 12.1281 13.2502 12.167C13.1835 12.2059 13.1169 12.2392 13.0502 12.267L12.9502 13.042C12.9391 13.1253 12.903 13.1948 12.8419 13.2503C12.7807 13.3059 12.7085 13.3337 12.6252 13.3337H11.3752ZM12.0169 11.167C12.3391 11.167 12.6141 11.0531 12.8419 10.8253C13.0696 10.5975 13.1835 10.3225 13.1835 10.0003C13.1835 9.6781 13.0696 9.4031 12.8419 9.17533C12.6141 8.94755 12.3391 8.83366 12.0169 8.83366C11.6891 8.83366 11.4127 8.94755 11.1877 9.17533C10.9627 9.4031 10.8502 9.6781 10.8502 10.0003C10.8502 10.3225 10.9627 10.5975 11.1877 10.8253C11.4127 11.0531 11.6891 11.167 12.0169 11.167Z" fill="#1C1B1F"/>
</g>
</svg>
