<svg width="24" height="24" viewBox="0 0 24 24" fill="none" xmlns="http://www.w3.org/2000/svg">
<mask id="mask0_490_3674" style="mask-type:alpha" maskUnits="userSpaceOnUse" x="0" y="0" width="24" height="24">
<rect width="24" height="24" fill="#D9D9D9"/>
</mask>
<g mask="url(#mask0_490_3674)">
<path d="M11.25 21.4995V20.5188C9.16669 20.3047 7.41284 19.4854 5.98847 18.0611C4.56412 16.6367 3.7449 14.8829 3.5308 12.7995H2.55002C2.33752 12.7995 2.15941 12.7276 2.01567 12.5838C1.87192 12.44 1.80005 12.2618 1.80005 12.0492C1.80005 11.8366 1.87192 11.6585 2.01567 11.515C2.15942 11.3714 2.33754 11.2996 2.55002 11.2996H3.5308C3.7449 9.21625 4.56412 7.4624 5.98847 6.03803C7.41284 4.61368 9.16669 3.79446 11.25 3.58036V2.59958C11.25 2.3871 11.3219 2.20898 11.4657 2.06523C11.6095 1.92148 11.7877 1.84961 12.0003 1.84961C12.2129 1.84961 12.391 1.92148 12.5346 2.06523C12.6782 2.20898 12.75 2.3871 12.75 2.59958V3.58036C14.8333 3.79446 16.5872 4.61368 18.0115 6.03803C19.4359 7.4624 20.2551 9.21625 20.4692 11.2996H21.45C21.6625 11.2996 21.8406 11.3715 21.9843 11.5153C22.1281 11.6591 22.1999 11.8373 22.1999 12.0499C22.1999 12.2625 22.1281 12.4406 21.9843 12.5842C21.8406 12.7277 21.6625 12.7995 21.45 12.7995H20.4692C20.2551 14.8829 19.4359 16.6367 18.0115 18.0611C16.5872 19.4854 14.8333 20.3047 12.75 20.5188V21.4995C12.75 21.712 12.6781 21.8902 12.5343 22.0339C12.3905 22.1776 12.2123 22.2495 11.9997 22.2495C11.7871 22.2495 11.609 22.1776 11.4654 22.0339C11.3218 21.8901 11.25 21.712 11.25 21.4995ZM12 19.0496C13.9333 19.0496 15.5833 18.3662 16.95 16.9996C18.3167 15.6329 19 13.9829 19 12.0496C19 10.1162 18.3167 8.46623 16.95 7.09956C15.5833 5.73289 13.9333 5.04956 12 5.04956C10.0667 5.04956 8.41667 5.73289 7.05 7.09956C5.68333 8.46623 5 10.1162 5 12.0496C5 13.9829 5.68333 15.6329 7.05 16.9996C8.41667 18.3662 10.0667 19.0496 12 19.0496Z" fill="#0058FF"/>
</g>
</svg>
