<svg width="24" height="24" viewBox="0 0 24 24" fill="none" xmlns="http://www.w3.org/2000/svg">
<mask id="mask0_483_1008" style="mask-type:alpha" maskUnits="userSpaceOnUse" x="0" y="0" width="24" height="24">
<rect width="24" height="24" fill="#D9D9D9"/>
</mask>
<g mask="url(#mask0_483_1008)">
<path d="M2.50003 9.05768V6.3077C2.50003 5.80257 2.67503 5.375 3.02503 5.025C3.37503 4.675 3.8026 4.5 4.30773 4.5H19.6923C20.1974 4.5 20.625 4.675 20.975 5.025C21.325 5.375 21.5 5.80257 21.5 6.3077V11.8077H20V6.3077C20 6.23077 19.968 6.16024 19.9039 6.09613C19.8397 6.03203 19.7692 5.99998 19.6923 5.99998H4.30773C4.2308 5.99998 4.16027 6.03203 4.09616 6.09613C4.03206 6.16024 4.00001 6.23077 4.00001 6.3077V9.05768H2.50003ZM7.00001 16.75C6.85514 16.75 6.72181 16.7169 6.60001 16.6509C6.47822 16.5849 6.38528 16.4827 6.32118 16.3442L4.52886 12.75H2.50003V11.25H5.00001C5.13846 11.25 5.26858 11.2846 5.39038 11.3538C5.51216 11.4231 5.60511 11.5269 5.66923 11.6654L7.00001 14.3173L10.3212 7.66538C10.3853 7.54358 10.4798 7.45223 10.6048 7.39133C10.7298 7.33044 10.8616 7.3 11 7.3C11.1385 7.3 11.2686 7.33044 11.3904 7.39133C11.5122 7.45223 11.6051 7.54358 11.6692 7.66538L13.4981 11.3135C13.275 11.4583 13.0596 11.6067 12.8519 11.7587C12.6442 11.9106 12.4526 12.0795 12.277 12.2654L10.9904 9.69225L7.66923 16.3442C7.60511 16.4827 7.51216 16.5849 7.39038 16.6509C7.26858 16.7169 7.13846 16.75 7.00001 16.75ZM10.8096 19.5H4.30773C3.8026 19.5 3.37503 19.325 3.02503 18.975C2.67503 18.625 2.50003 18.1974 2.50003 17.6923V14.9423H4.00001V17.6923C4.00001 17.7692 4.03206 17.8397 4.09616 17.9038C4.16027 17.9679 4.2308 18 4.30773 18H10.3827C10.4263 18.2666 10.4821 18.5234 10.55 18.7702C10.618 19.0169 10.7045 19.2602 10.8096 19.5ZM17 21.5C15.7513 21.5 14.6891 21.0621 13.8135 20.1865C12.9378 19.3109 12.5 18.2487 12.5 17C12.5 15.7513 12.9378 14.6891 13.8135 13.8135C14.6891 12.9378 15.7513 12.5 17 12.5C18.2487 12.5 19.3109 12.9378 20.1865 13.8135C21.0622 14.6891 21.5 15.7513 21.5 17C21.5 18.2487 21.0622 19.3109 20.1865 20.1865C19.3109 21.0621 18.2487 21.5 17 21.5ZM17.2 17.4231L19.3019 15.3211L18.6789 14.6981L16.5769 16.8L17.2 17.4231Z" fill="#272727"/>
</g>
</svg>
