<svg width="25" height="25" viewBox="0 0 25 25" fill="none" xmlns="http://www.w3.org/2000/svg">
<mask id="mask0_743_505" style="mask-type:alpha" maskUnits="userSpaceOnUse" x="0" y="0" width="25" height="25">
<rect x="0.834473" y="0.675781" width="24" height="24" fill="#D9D9D9"/>
</mask>
<g mask="url(#mask0_743_505)">
<path d="M12.0845 22.1255V21.1447C10.0012 20.9306 8.24731 20.1114 6.82295 18.6871C5.3986 17.2627 4.57937 15.5088 4.36527 13.4255H3.3845C3.172 13.4255 2.99388 13.3536 2.85015 13.2098C2.7064 13.066 2.63452 12.8878 2.63452 12.6752C2.63452 12.4626 2.7064 12.2845 2.85015 12.1409C2.9939 11.9974 3.17201 11.9256 3.3845 11.9256H4.36527C4.57937 9.84223 5.3986 8.08838 6.82295 6.66401C8.24731 5.23966 10.0012 4.42044 12.0845 4.20634V3.22556C12.0845 3.01308 12.1564 2.83496 12.3002 2.69121C12.444 2.54746 12.6222 2.47559 12.8348 2.47559C13.0474 2.47559 13.2255 2.54746 13.3691 2.69121C13.5127 2.83496 13.5844 3.01308 13.5844 3.22556V4.20634C15.6678 4.42044 17.4216 5.23966 18.846 6.66401C20.2703 8.08838 21.0896 9.84223 21.3037 11.9256H22.2844C22.4969 11.9256 22.675 11.9975 22.8188 12.1413C22.9625 12.2851 23.0344 12.4633 23.0344 12.6759C23.0344 12.8885 22.9625 13.0666 22.8188 13.2101C22.675 13.3537 22.4969 13.4255 22.2844 13.4255H21.3037C21.0896 15.5088 20.2703 17.2627 18.846 18.6871C17.4216 20.1114 15.6678 20.9306 13.5844 21.1447V22.1255C13.5844 22.338 13.5125 22.5161 13.3687 22.6599C13.2249 22.8036 13.0467 22.8755 12.8341 22.8755C12.6215 22.8755 12.4435 22.8036 12.2999 22.6599C12.1563 22.5161 12.0845 22.338 12.0845 22.1255ZM12.8345 19.6755C14.7678 19.6755 16.4178 18.9922 17.7845 17.6255C19.1511 16.2589 19.8345 14.6089 19.8345 12.6755C19.8345 10.7422 19.1511 9.0922 17.7845 7.72554C16.4178 6.35887 14.7678 5.67554 12.8345 5.67554C10.9011 5.67554 9.25114 6.35887 7.88447 7.72554C6.51781 9.0922 5.83447 10.7422 5.83447 12.6755C5.83447 14.6089 6.51781 16.2589 7.88447 17.6255C9.25114 18.9922 10.9011 19.6755 12.8345 19.6755ZM12.8345 16.1755C11.872 16.1755 11.048 15.8328 10.3626 15.1474C9.67721 14.462 9.3345 13.638 9.3345 12.6755C9.3345 11.7131 9.67721 10.8891 10.3626 10.2037C11.048 9.51827 11.872 9.17556 12.8345 9.17556C13.797 9.17556 14.6209 9.51827 15.3063 10.2037C15.9917 10.8891 16.3344 11.7131 16.3344 12.6755C16.3344 13.638 15.9917 14.462 15.3063 15.1474C14.6209 15.8328 13.797 16.1755 12.8345 16.1755ZM12.8345 14.6755C13.3845 14.6755 13.8553 14.4797 14.247 14.088C14.6386 13.6964 14.8345 13.2255 14.8345 12.6755C14.8345 12.1255 14.6386 11.6547 14.247 11.263C13.8553 10.8714 13.3845 10.6755 12.8345 10.6755C12.2845 10.6755 11.8136 10.8714 11.422 11.263C11.0303 11.6547 10.8345 12.1255 10.8345 12.6755C10.8345 13.2255 11.0303 13.6964 11.422 14.088C11.8136 14.4797 12.2845 14.6755 12.8345 14.6755Z" fill="#0058FF"/>
</g>
</svg>
