<svg width="24" height="24" viewBox="0 0 24 24" fill="none" xmlns="http://www.w3.org/2000/svg">
<mask id="mask0_1420_596" style="mask-type:alpha" maskUnits="userSpaceOnUse" x="0" y="0" width="24" height="24">
<rect width="24" height="24" fill="#D9D9D9"/>
</mask>
<g mask="url(#mask0_1420_596)">
<path d="M11 21.9508V20.9508C8.91672 20.7174 7.12922 19.8549 5.63755 18.3633C4.14588 16.8716 3.28338 15.0841 3.05005 13.0008H2.05005C1.76672 13.0008 1.52922 12.9049 1.33755 12.7133C1.14588 12.5216 1.05005 12.2841 1.05005 12.0008C1.05005 11.7174 1.14588 11.4799 1.33755 11.2883C1.52922 11.0966 1.76672 11.0008 2.05005 11.0008H3.05005C3.28338 8.91745 4.14588 7.12995 5.63755 5.63828C7.12922 4.14661 8.91672 3.28411 11 3.05078V2.05078C11 1.76745 11.0959 1.52995 11.2875 1.33828C11.4792 1.14661 11.7167 1.05078 12 1.05078C12.2834 1.05078 12.5209 1.14661 12.7125 1.33828C12.9042 1.52995 13 1.76745 13 2.05078V3.05078C15.0834 3.28411 16.8709 4.14661 18.3625 5.63828C19.8542 7.12995 20.7167 8.91745 20.95 11.0008H21.95C22.2334 11.0008 22.4709 11.0966 22.6625 11.2883C22.8542 11.4799 22.95 11.7174 22.95 12.0008C22.95 12.2841 22.8542 12.5216 22.6625 12.7133C22.4709 12.9049 22.2334 13.0008 21.95 13.0008H20.95C20.7167 15.0841 19.8542 16.8716 18.3625 18.3633C16.8709 19.8549 15.0834 20.7174 13 20.9508V21.9508C13 22.2341 12.9042 22.4716 12.7125 22.6633C12.5209 22.8549 12.2834 22.9508 12 22.9508C11.7167 22.9508 11.4792 22.8549 11.2875 22.6633C11.0959 22.4716 11 22.2341 11 21.9508ZM12 19.0008C13.9334 19.0008 15.5834 18.3174 16.95 16.9508C18.3167 15.5841 19 13.9341 19 12.0008C19 10.0674 18.3167 8.41745 16.95 7.05078C15.5834 5.68411 13.9334 5.00078 12 5.00078C10.0667 5.00078 8.41672 5.68411 7.05005 7.05078C5.68338 8.41745 5.00005 10.0674 5.00005 12.0008C5.00005 13.9341 5.68338 15.5841 7.05005 16.9508C8.41672 18.3174 10.0667 19.0008 12 19.0008ZM12 16.0008C10.9 16.0008 9.95838 15.6091 9.17505 14.8258C8.39172 14.0424 8.00005 13.1008 8.00005 12.0008C8.00005 10.9008 8.39172 9.95911 9.17505 9.17578C9.95838 8.39245 10.9 8.00078 12 8.00078C13.1 8.00078 14.0417 8.39245 14.825 9.17578C15.6084 9.95911 16 10.9008 16 12.0008C16 13.1008 15.6084 14.0424 14.825 14.8258C14.0417 15.6091 13.1 16.0008 12 16.0008Z" fill="#1C1B1F"/>
</g>
</svg>
