<svg width="25" height="25" viewBox="0 0 25 25" fill="none" xmlns="http://www.w3.org/2000/svg">
<mask id="mask0_760_552" style="mask-type:alpha" maskUnits="userSpaceOnUse" x="0" y="0" width="25" height="25">
<rect x="0.515625" y="0.0507812" width="24" height="24" fill="#D9D9D9"/>
</mask>
<g mask="url(#mask0_760_552)">
<path d="M5.51551 19.0508C5.23218 19.0508 4.99468 18.9549 4.80301 18.7633C4.61135 18.5716 4.51551 18.3341 4.51551 18.0508C4.51551 17.7674 4.61135 17.5299 4.80301 17.3383C4.99468 17.1466 5.23218 17.0508 5.51551 17.0508H6.51551V10.0508C6.51551 8.66745 6.93218 7.43828 7.76551 6.36328C8.59885 5.28828 9.68218 4.58411 11.0155 4.25078V3.55078C11.0155 3.13411 11.1613 2.77995 11.453 2.48828C11.7447 2.19661 12.0988 2.05078 12.5155 2.05078C12.9322 2.05078 13.2863 2.19661 13.578 2.48828C13.8697 2.77995 14.0155 3.13411 14.0155 3.55078V4.25078C15.3488 4.58411 16.4322 5.28828 17.2655 6.36328C18.0988 7.43828 18.5155 8.66745 18.5155 10.0508V17.0508H19.5155C19.7988 17.0508 20.0363 17.1466 20.228 17.3383C20.4197 17.5299 20.5155 17.7674 20.5155 18.0508C20.5155 18.3341 20.4197 18.5716 20.228 18.7633C20.0363 18.9549 19.7988 19.0508 19.5155 19.0508H5.51551ZM12.5155 22.0508C11.9655 22.0508 11.4947 21.8549 11.103 21.4633C10.7113 21.0716 10.5155 20.6008 10.5155 20.0508H14.5155C14.5155 20.6008 14.3197 21.0716 13.928 21.4633C13.5363 21.8549 13.0655 22.0508 12.5155 22.0508ZM8.51551 17.0508H16.5155V10.0508C16.5155 8.95078 16.1238 8.00911 15.3405 7.22578C14.5572 6.44245 13.6155 6.05078 12.5155 6.05078C11.4155 6.05078 10.4738 6.44245 9.69051 7.22578C8.90718 8.00911 8.51551 8.95078 8.51551 10.0508V17.0508ZM3.51551 10.0508C3.23218 10.0508 2.99468 9.94245 2.80301 9.72578C2.61135 9.50911 2.53218 9.25911 2.56551 8.97578C2.69885 7.72578 3.04885 6.56328 3.61551 5.48828C4.18218 4.41328 4.90718 3.47578 5.79051 2.67578C6.00718 2.49245 6.25301 2.40911 6.52801 2.42578C6.80301 2.44245 7.02385 2.56745 7.19051 2.80078C7.35718 3.03411 7.42385 3.28411 7.39051 3.55078C7.35718 3.81745 7.23218 4.05078 7.01551 4.25078C6.36551 4.86745 5.83218 5.58411 5.41551 6.40078C4.99885 7.21745 4.72385 8.10078 4.59051 9.05078C4.55718 9.33411 4.44051 9.57161 4.24051 9.76328C4.04051 9.95495 3.79885 10.0508 3.51551 10.0508ZM21.5155 10.0508C21.2322 10.0508 20.9905 9.95495 20.7905 9.76328C20.5905 9.57161 20.4738 9.33411 20.4405 9.05078C20.3072 8.10078 20.0322 7.21745 19.6155 6.40078C19.1988 5.58411 18.6655 4.86745 18.0155 4.25078C17.7988 4.05078 17.6738 3.81745 17.6405 3.55078C17.6072 3.28411 17.6738 3.03411 17.8405 2.80078C18.0072 2.56745 18.228 2.44245 18.503 2.42578C18.778 2.40911 19.0238 2.49245 19.2405 2.67578C20.1238 3.47578 20.8488 4.41328 21.4155 5.48828C21.9822 6.56328 22.3322 7.72578 22.4655 8.97578C22.4988 9.25911 22.4197 9.50911 22.228 9.72578C22.0363 9.94245 21.7988 10.0508 21.5155 10.0508Z" fill="#1C1B1F"/>
</g>
</svg>
