<svg width="24" height="24" viewBox="0 0 24 24" fill="none" xmlns="http://www.w3.org/2000/svg">
<mask id="mask0_483_1037" style="mask-type:alpha" maskUnits="userSpaceOnUse" x="0" y="0" width="24" height="24">
<rect width="24" height="24" fill="#D9D9D9"/>
</mask>
<g mask="url(#mask0_483_1037)">
<path d="M5.24991 18.8846C5.03741 18.8846 4.85928 18.8127 4.71553 18.6689C4.57178 18.5251 4.49991 18.3469 4.49991 18.1343C4.49991 17.9217 4.57178 17.7436 4.71553 17.6C4.85928 17.4564 5.03741 17.3846 5.24991 17.3846H6.30761V9.92305C6.30761 8.57818 6.72267 7.38908 7.55278 6.35575C8.38292 5.32242 9.44863 4.66153 10.7499 4.37308V3.75C10.7499 3.40278 10.8713 3.10765 11.1142 2.8646C11.357 2.62153 11.6519 2.5 11.9988 2.5C12.3457 2.5 12.6409 2.62153 12.8845 2.8646C13.1281 3.10765 13.2499 3.40278 13.2499 3.75V4.37308C14.5511 4.66153 15.6168 5.32242 16.447 6.35575C17.2771 7.38908 17.6922 8.57818 17.6922 9.92305V17.3846H18.7499C18.9624 17.3846 19.1405 17.4565 19.2842 17.6003C19.428 17.7441 19.4999 17.9223 19.4999 18.1349C19.4999 18.3475 19.428 18.5256 19.2842 18.6692C19.1405 18.8128 18.9624 18.8846 18.7499 18.8846H5.24991ZM11.9982 21.6923C11.5006 21.6923 11.0752 21.5153 10.722 21.1613C10.3688 20.8073 10.1922 20.3817 10.1922 19.8846H13.8076C13.8076 20.3833 13.6304 20.8093 13.2761 21.1625C12.9217 21.5157 12.4958 21.6923 11.9982 21.6923ZM7.80756 17.3846H16.1922V9.92305C16.1922 8.76535 15.7829 7.77721 14.9643 6.95863C14.1457 6.14003 13.1576 5.73073 11.9999 5.73073C10.8422 5.73073 9.85404 6.14003 9.03546 6.95863C8.21686 7.77721 7.80756 8.76535 7.80756 9.92305V17.3846Z" fill="#1C1B1F"/>
</g>
</svg>
