<svg width="25" height="25" viewBox="0 0 25 25" fill="none" xmlns="http://www.w3.org/2000/svg">
<mask id="mask0_1399_513" style="mask-type:alpha" maskUnits="userSpaceOnUse" x="0" y="0" width="25" height="25">
<rect x="0.252491" y="0.760742" width="24" height="24" fill="#D9D9D9"/>
</mask>
<g mask="url(#mask0_1399_513)">
<path d="M18.2525 11.7607H16.2525C15.9692 11.7607 15.7317 11.6649 15.54 11.4732C15.3483 11.2816 15.2525 11.0441 15.2525 10.7607C15.2525 10.4774 15.3483 10.2399 15.54 10.0482C15.7317 9.85658 15.9692 9.76074 16.2525 9.76074H18.2525V7.76074C18.2525 7.47741 18.3483 7.23991 18.54 7.04824C18.7317 6.85658 18.9692 6.76074 19.2525 6.76074C19.5358 6.76074 19.7733 6.85658 19.965 7.04824C20.1567 7.23991 20.2525 7.47741 20.2525 7.76074V9.76074H22.2525C22.5358 9.76074 22.7733 9.85658 22.965 10.0482C23.1567 10.2399 23.2525 10.4774 23.2525 10.7607C23.2525 11.0441 23.1567 11.2816 22.965 11.4732C22.7733 11.6649 22.5358 11.7607 22.2525 11.7607H20.2525V13.7607C20.2525 14.0441 20.1567 14.2816 19.965 14.4732C19.7733 14.6649 19.5358 14.7607 19.2525 14.7607C18.9692 14.7607 18.7317 14.6649 18.54 14.4732C18.3483 14.2816 18.2525 14.0441 18.2525 13.7607V11.7607ZM9.25249 12.7607C8.15249 12.7607 7.21082 12.3691 6.42749 11.5857C5.64416 10.8024 5.25249 9.86074 5.25249 8.76074C5.25249 7.66074 5.64416 6.71908 6.42749 5.93574C7.21082 5.15241 8.15249 4.76074 9.25249 4.76074C10.3525 4.76074 11.2942 5.15241 12.0775 5.93574C12.8608 6.71908 13.2525 7.66074 13.2525 8.76074C13.2525 9.86074 12.8608 10.8024 12.0775 11.5857C11.2942 12.3691 10.3525 12.7607 9.25249 12.7607ZM1.25249 18.7607V17.9607C1.25249 17.3941 1.39832 16.8732 1.68999 16.3982C1.98166 15.9232 2.36916 15.5607 2.85249 15.3107C3.88582 14.7941 4.93582 14.4066 6.00249 14.1482C7.06916 13.8899 8.15249 13.7607 9.25249 13.7607C10.3525 13.7607 11.4358 13.8899 12.5025 14.1482C13.5692 14.4066 14.6192 14.7941 15.6525 15.3107C16.1358 15.5607 16.5233 15.9232 16.815 16.3982C17.1067 16.8732 17.2525 17.3941 17.2525 17.9607V18.7607C17.2525 19.3107 17.0567 19.7816 16.665 20.1732C16.2733 20.5649 15.8025 20.7607 15.2525 20.7607H3.25249C2.70249 20.7607 2.23166 20.5649 1.83999 20.1732C1.44832 19.7816 1.25249 19.3107 1.25249 18.7607ZM3.25249 18.7607H15.2525V17.9607C15.2525 17.7774 15.2067 17.6107 15.115 17.4607C15.0233 17.3107 14.9025 17.1941 14.7525 17.1107C13.8525 16.6607 12.9442 16.3232 12.0275 16.0982C11.1108 15.8732 10.1858 15.7607 9.25249 15.7607C8.31916 15.7607 7.39416 15.8732 6.47749 16.0982C5.56082 16.3232 4.65249 16.6607 3.75249 17.1107C3.60249 17.1941 3.48166 17.3107 3.38999 17.4607C3.29832 17.6107 3.25249 17.7774 3.25249 17.9607V18.7607ZM9.25249 10.7607C9.80249 10.7607 10.2733 10.5649 10.665 10.1732C11.0567 9.78158 11.2525 9.31074 11.2525 8.76074C11.2525 8.21074 11.0567 7.73991 10.665 7.34824C10.2733 6.95658 9.80249 6.76074 9.25249 6.76074C8.70249 6.76074 8.23166 6.95658 7.83999 7.34824C7.44832 7.73991 7.25249 8.21074 7.25249 8.76074C7.25249 9.31074 7.44832 9.78158 7.83999 10.1732C8.23166 10.5649 8.70249 10.7607 9.25249 10.7607Z" fill="#1C1B1F"/>
</g>
</svg>
