<svg width="25" height="24" viewBox="0 0 25 24" fill="none" xmlns="http://www.w3.org/2000/svg">
<mask id="mask0_483_687" style="mask-type:alpha" maskUnits="userSpaceOnUse" x="0" y="0" width="25" height="24">
<rect x="0.228821" width="24" height="24" fill="#D9D9D9"/>
</mask>
<g mask="url(#mask0_483_687)">
<path d="M12.2288 11.6923C11.2663 11.6923 10.4424 11.3496 9.75695 10.6642C9.07153 9.97879 8.72882 9.15484 8.72882 8.19236C8.72882 7.22986 9.07153 6.40591 9.75695 5.72051C10.4424 5.03509 11.2663 4.69238 12.2288 4.69238C13.1913 4.69238 14.0152 5.03509 14.7006 5.72051C15.3861 6.40591 15.7288 7.22986 15.7288 8.19236C15.7288 9.15484 15.3861 9.97879 14.7006 10.6642C14.0152 11.3496 13.1913 11.6923 12.2288 11.6923ZM4.72882 17.7885V17.0846C4.72882 16.5949 4.86184 16.1414 5.12787 15.7241C5.39389 15.3068 5.74933 14.986 6.1942 14.7616C7.18266 14.277 8.17978 13.9135 9.18555 13.6712C10.1913 13.4289 11.2057 13.3078 12.2288 13.3078C13.2519 13.3078 14.2663 13.4289 15.272 13.6712C16.2778 13.9135 17.2749 14.277 18.2634 14.7616C18.7083 14.986 19.0637 15.3068 19.3297 15.7241C19.5958 16.1414 19.7288 16.5949 19.7288 17.0846V17.7885C19.7288 18.2103 19.581 18.5689 19.2855 18.8644C18.99 19.1599 18.6314 19.3077 18.2096 19.3077H6.24802C5.82624 19.3077 5.4676 19.1599 5.1721 18.8644C4.87658 18.5689 4.72882 18.2103 4.72882 17.7885ZM6.2288 17.8077H18.2288V17.0846C18.2288 16.8821 18.1701 16.6946 18.0528 16.5221C17.9355 16.3497 17.7762 16.209 17.5749 16.1C16.7134 15.6757 15.8349 15.3542 14.9395 15.1356C14.0441 14.917 13.1405 14.8077 12.2288 14.8077C11.3171 14.8077 10.4135 14.917 9.5181 15.1356C8.62266 15.3542 7.74418 15.6757 6.88265 16.1C6.68136 16.209 6.52207 16.3497 6.40477 16.5221C6.28745 16.6946 6.2288 16.8821 6.2288 17.0846V17.8077ZM12.2288 10.1924C12.7788 10.1924 13.2496 9.99653 13.6413 9.60486C14.033 9.21319 14.2288 8.74236 14.2288 8.19236C14.2288 7.64236 14.033 7.17153 13.6413 6.77986C13.2496 6.38819 12.7788 6.19236 12.2288 6.19236C11.6788 6.19236 11.208 6.38819 10.8163 6.77986C10.4246 7.17153 10.2288 7.64236 10.2288 8.19236C10.2288 8.74236 10.4246 9.21319 10.8163 9.60486C11.208 9.99653 11.6788 10.1924 12.2288 10.1924Z" fill="#1C1B1F"/>
</g>
</svg>
