<svg width="18" height="18" viewBox="0 0 18 18" fill="none" xmlns="http://www.w3.org/2000/svg">
<mask id="mask0_1287_1661" style="mask-type:alpha" maskUnits="userSpaceOnUse" x="0" y="0" width="18" height="18">
<rect width="18" height="18" fill="#D9D9D9"/>
</mask>
<g mask="url(#mask0_1287_1661)">
<path d="M6.46873 15.375C5.39951 15.375 4.49158 15.0016 3.74496 14.255C2.99832 13.5084 2.625 12.6005 2.625 11.5312C2.625 11.0168 2.72284 10.525 2.91851 10.0558C3.11419 9.58653 3.39279 9.17115 3.75433 8.80961L8.80961 3.75433C9.17115 3.39279 9.58653 3.11419 10.0558 2.91851C10.525 2.72284 11.0168 2.625 11.5312 2.625C12.6005 2.625 13.5084 2.99832 14.255 3.74496C15.0016 4.49158 15.375 5.39951 15.375 6.46873C15.375 6.98316 15.2771 7.47498 15.0815 7.94421C14.8858 8.41343 14.6072 8.82881 14.2456 9.19035L9.19035 14.2456C8.82881 14.6072 8.41343 14.8858 7.94421 15.0815C7.47498 15.2771 6.98316 15.375 6.46873 15.375ZM11.3264 10.5173L13.4625 8.39998C13.7125 8.14998 13.9062 7.85623 14.0437 7.51873C14.1812 7.18123 14.25 6.83123 14.25 6.46873C14.25 5.71873 13.9844 5.07811 13.4531 4.54686C12.9219 4.01561 12.2812 3.74998 11.5312 3.74998C11.1687 3.74998 10.8187 3.81873 10.4812 3.95623C10.1437 4.09373 9.84998 4.28748 9.59998 4.53748L7.48266 6.67356L11.3264 10.5173ZM6.46873 14.25C6.83123 14.25 7.18123 14.1812 7.51873 14.0437C7.85623 13.9062 8.14998 13.7125 8.39998 13.4625L10.5173 11.3264L6.67356 7.48266L4.53748 9.59998C4.28748 9.84998 4.09373 10.1437 3.95623 10.4812C3.81873 10.8187 3.74998 11.1687 3.74998 11.5312C3.74998 12.2812 4.01561 12.9219 4.54686 13.4531C5.07811 13.9844 5.71873 14.25 6.46873 14.25Z" fill="#006A26"/>
</g>
</svg>
