<svg width="24" height="24" viewBox="0 0 24 24" fill="none" xmlns="http://www.w3.org/2000/svg">
<mask id="mask0_1294_502" style="mask-type:alpha" maskUnits="userSpaceOnUse" x="0" y="0" width="24" height="24">
<rect width="24" height="24" fill="#D9D9D9"/>
</mask>
<g mask="url(#mask0_1294_502)">
<path d="M17.1615 20.9192L18.4846 19.5865L16.4711 17.573L15.1384 18.8961C14.8474 19.1871 14.7019 19.5243 14.7019 19.9077C14.7019 20.291 14.8474 20.6282 15.1384 20.9192C15.4295 21.2103 15.7666 21.3558 16.15 21.3558C16.5333 21.3558 16.8705 21.2103 17.1615 20.9192ZM19.5288 18.5423L20.8615 17.2192C21.1526 16.9282 21.2965 16.591 21.2933 16.2077C21.2901 15.8243 21.1429 15.4871 20.8519 15.1961C20.5609 14.9115 20.2253 14.7676 19.8452 14.7644C19.465 14.7612 19.1295 14.9051 18.8384 15.1961L17.5153 16.5288L19.5288 18.5423ZM18.2211 21.9884C17.6429 22.5666 16.9509 22.8541 16.1452 22.8509C15.3394 22.8477 14.6474 22.5602 14.0692 21.9884C13.4974 21.4102 13.2099 20.7182 13.2067 19.9125C13.2035 19.1067 13.491 18.4147 14.0692 17.8365L17.7788 14.1269C18.3506 13.5551 19.0426 13.2692 19.8548 13.2692C20.667 13.2692 21.3589 13.5551 21.9307 14.1269C22.5089 14.7051 22.798 15.3971 22.798 16.2029C22.798 17.0086 22.5089 17.7006 21.9307 18.2788L18.2211 21.9884ZM5.3077 20.5C4.80898 20.5 4.38302 20.3233 4.02982 19.9701C3.67661 19.6169 3.5 19.191 3.5 18.6923V5.3077C3.5 4.80898 3.67661 4.38302 4.02982 4.02982C4.38302 3.67661 4.80898 3.5 5.3077 3.5H9.7577C9.82052 2.94488 10.0628 2.47278 10.4846 2.08368C10.9064 1.69456 11.4115 1.5 12 1.5C12.5948 1.5 13.1032 1.69456 13.525 2.08368C13.9468 2.47278 14.1858 2.94488 14.2422 3.5H18.6922C19.191 3.5 19.6169 3.67661 19.9701 4.02982C20.3233 4.38302 20.5 4.80898 20.5 5.3077V10.9615C20.25 10.9102 20 10.8878 19.75 10.8942C19.5 10.9006 19.25 10.9224 19 10.9596V5.3077C19 5.21795 18.9711 5.14422 18.9134 5.08652C18.8557 5.02883 18.782 4.99998 18.6922 4.99998H5.3077C5.21795 4.99998 5.14423 5.02883 5.08652 5.08652C5.02882 5.14422 4.99997 5.21795 4.99997 5.3077V18.6923C4.99997 18.782 5.02882 18.8557 5.08652 18.9134C5.14423 18.9711 5.21795 19 5.3077 19H10.9115C10.8679 19.25 10.8429 19.5 10.8365 19.75C10.8301 20 10.8525 20.25 10.9038 20.5H5.3077ZM12 4.34613C12.2166 4.34613 12.3958 4.27529 12.5375 4.13363C12.6791 3.99196 12.75 3.81279 12.75 3.59613C12.75 3.37946 12.6791 3.20029 12.5375 3.05863C12.3958 2.91696 12.2166 2.84613 12 2.84613C11.7833 2.84613 11.6041 2.91696 11.4625 3.05863C11.3208 3.20029 11.25 3.37946 11.25 3.59613C11.25 3.81279 11.3208 3.99196 11.4625 4.13363C11.6041 4.27529 11.7833 4.34613 12 4.34613ZM7.25 8.86535V7.36538H16.75V8.86535H7.25ZM7.25 12.75V11.25H16.75V11.8788C16.6359 11.9557 16.5275 12.0388 16.425 12.1279C16.3224 12.217 16.2141 12.3186 16.1 12.4327L15.7827 12.75H7.25ZM7.25 16.6346V15.1346H13.398L12.6442 15.8884C12.5173 16.0153 12.3981 16.1397 12.2865 16.2615C12.175 16.3833 12.0711 16.5076 11.975 16.6346H7.25Z" fill="#1C1B1F"/>
</g>
</svg>
