<svg width="25" height="25" viewBox="0 0 25 25" fill="none" xmlns="http://www.w3.org/2000/svg">
<mask id="mask0_1062_2772" style="mask-type:alpha" maskUnits="userSpaceOnUse" x="0" y="0" width="25" height="25">
<rect x="0.281494" y="0.0615234" width="24" height="24" fill="#D9D9D9"/>
</mask>
<g mask="url(#mask0_1062_2772)">
<path d="M2.28149 7.06152V2.06152H7.28149V4.06152H4.28149V7.06152H2.28149ZM2.28149 22.0615V17.0615H4.28149V20.0615H7.28149V22.0615H2.28149ZM17.2815 22.0615V20.0615H20.2815V17.0615H22.2815V22.0615H17.2815ZM20.2815 7.06152V4.06152H17.2815V2.06152H22.2815V7.06152H20.2815ZM17.7815 17.5615H19.2815V19.0615H17.7815V17.5615ZM17.7815 14.5615H19.2815V16.0615H17.7815V14.5615ZM16.2815 16.0615H17.7815V17.5615H16.2815V16.0615ZM14.7815 17.5615H16.2815V19.0615H14.7815V17.5615ZM13.2815 16.0615H14.7815V17.5615H13.2815V16.0615ZM16.2815 13.0615H17.7815V14.5615H16.2815V13.0615ZM14.7815 14.5615H16.2815V16.0615H14.7815V14.5615ZM13.2815 13.0615H14.7815V14.5615H13.2815V13.0615ZM19.2815 5.06152V11.0615H13.2815V5.06152H19.2815ZM11.2815 13.0615V19.0615H5.28149V13.0615H11.2815ZM11.2815 5.06152V11.0615H5.28149V5.06152H11.2815ZM9.78149 17.5615V14.5615H6.78149V17.5615H9.78149ZM9.78149 9.56152V6.56152H6.78149V9.56152H9.78149ZM17.7815 9.56152V6.56152H14.7815V9.56152H17.7815Z" fill="#1C1B1F"/>
</g>
</svg>
