<svg width="18" height="18" viewBox="0 0 18 18" fill="none" xmlns="http://www.w3.org/2000/svg">
<mask id="mask0_872_849" style="mask-type:alpha" maskUnits="userSpaceOnUse" x="0" y="0" width="18" height="18">
<rect width="18" height="18" fill="#D9D9D9"/>
</mask>
<g mask="url(#mask0_872_849)">
<path d="M8.99998 12.375C9.93651 12.375 10.7331 12.0466 11.3899 11.3899C12.0466 10.7331 12.375 9.93651 12.375 8.99998C12.375 8.06346 12.0466 7.26683 11.3899 6.61009C10.7331 5.95336 9.93651 5.625 8.99998 5.625C8.06346 5.625 7.26683 5.95336 6.61009 6.61009C5.95336 7.26683 5.625 8.06346 5.625 8.99998C5.625 9.93651 5.95336 10.7331 6.61009 11.3899C7.26683 12.0466 8.06346 12.375 8.99998 12.375ZM9.00124 16.125C8.01579 16.125 7.08951 15.938 6.22241 15.564C5.3553 15.19 4.60104 14.6824 3.95963 14.0413C3.3182 13.4001 2.81041 12.6462 2.43624 11.7795C2.06208 10.9128 1.875 9.98669 1.875 9.00124C1.875 8.01579 2.062 7.08951 2.436 6.22241C2.81 5.3553 3.31756 4.60104 3.95869 3.95963C4.59983 3.3182 5.35376 2.81041 6.22048 2.43624C7.08719 2.06208 8.01328 1.875 8.99873 1.875C9.98418 1.875 10.9105 2.062 11.7776 2.436C12.6447 2.81 13.3989 3.31756 14.0403 3.95869C14.6818 4.59983 15.1896 5.35376 15.5637 6.22048C15.9379 7.08719 16.125 8.01328 16.125 8.99873C16.125 9.98418 15.938 10.9104 15.564 11.7776C15.19 12.6447 14.6824 13.3989 14.0413 14.0403C13.4001 14.6818 12.6462 15.1896 11.7795 15.5637C10.9128 15.9379 9.98669 16.125 9.00124 16.125ZM8.99998 15C10.675 15 12.0937 14.4187 13.2562 13.2562C14.4187 12.0937 15 10.675 15 8.99998C15 7.32498 14.4187 5.90623 13.2562 4.74373C12.0937 3.58123 10.675 2.99998 8.99998 2.99998C7.32498 2.99998 5.90623 3.58123 4.74373 4.74373C3.58123 5.90623 2.99998 7.32498 2.99998 8.99998C2.99998 10.675 3.58123 12.0937 4.74373 13.2562C5.90623 14.4187 7.32498 15 8.99998 15Z" fill="#39B00F"/>
</g>
</svg>
