<svg width="12" height="12" viewBox="0 0 12 12" fill="none" xmlns="http://www.w3.org/2000/svg">
<mask id="mask0_1362_510" style="mask-type:alpha" maskUnits="userSpaceOnUse" x="0" y="0" width="12" height="12">
<rect width="12" height="12" fill="#D9D9D9"/>
</mask>
<g mask="url(#mask0_1362_510)">
<path d="M5.06267 11C4.93767 11 4.82934 10.9583 4.73767 10.875C4.646 10.7917 4.59184 10.6875 4.57517 10.5625L4.42517 9.4C4.31684 9.35833 4.21475 9.30833 4.11892 9.25C4.02309 9.19167 3.92934 9.12917 3.83767 9.0625L2.75017 9.5125C2.6335 9.5625 2.51684 9.56875 2.40017 9.53125C2.2835 9.49375 2.19184 9.42083 2.12517 9.3125L1.20017 7.7C1.1335 7.59167 1.11267 7.475 1.13767 7.35C1.16267 7.225 1.22517 7.125 1.32517 7.05L2.26267 6.3375C2.25434 6.27917 2.25017 6.22292 2.25017 6.16875V5.83125C2.25017 5.77708 2.25434 5.72083 2.26267 5.6625L1.32517 4.95C1.22517 4.875 1.16267 4.775 1.13767 4.65C1.11267 4.525 1.1335 4.40833 1.20017 4.3L2.12517 2.6875C2.19184 2.57917 2.2835 2.50625 2.40017 2.46875C2.51684 2.43125 2.6335 2.4375 2.75017 2.4875L3.83767 2.9375C3.92934 2.87083 4.02517 2.80833 4.12517 2.75C4.22517 2.69167 4.32517 2.64167 4.42517 2.6L4.57517 1.4375C4.59184 1.3125 4.646 1.20833 4.73767 1.125C4.82934 1.04167 4.93767 1 5.06267 1H6.93767C7.06267 1 7.171 1.04167 7.26267 1.125C7.35434 1.20833 7.4085 1.3125 7.42517 1.4375L7.57517 2.6C7.6835 2.64167 7.78559 2.69167 7.88142 2.75C7.97725 2.80833 8.071 2.87083 8.16267 2.9375L9.25017 2.4875C9.36684 2.4375 9.4835 2.43125 9.60017 2.46875C9.71684 2.50625 9.8085 2.57917 9.87517 2.6875L10.8002 4.3C10.8668 4.40833 10.8877 4.525 10.8627 4.65C10.8377 4.775 10.7752 4.875 10.6752 4.95L9.73767 5.6625C9.746 5.72083 9.75017 5.77708 9.75017 5.83125V6.16875C9.75017 6.22292 9.74184 6.27917 9.72517 6.3375L10.6627 7.05C10.7627 7.125 10.8252 7.225 10.8502 7.35C10.8752 7.475 10.8543 7.59167 10.7877 7.7L9.86267 9.3C9.796 9.40833 9.70225 9.48333 9.58142 9.525C9.46059 9.56667 9.34184 9.5625 9.22517 9.5125L8.16267 9.0625C8.071 9.12917 7.97517 9.19167 7.87517 9.25C7.77517 9.30833 7.67517 9.35833 7.57517 9.4L7.42517 10.5625C7.4085 10.6875 7.35434 10.7917 7.26267 10.875C7.171 10.9583 7.06267 11 6.93767 11H5.06267ZM6.02517 7.75C6.5085 7.75 6.921 7.57917 7.26267 7.2375C7.60434 6.89583 7.77517 6.48333 7.77517 6C7.77517 5.51667 7.60434 5.10417 7.26267 4.7625C6.921 4.42083 6.5085 4.25 6.02517 4.25C5.5335 4.25 5.11892 4.42083 4.78142 4.7625C4.44392 5.10417 4.27517 5.51667 4.27517 6C4.27517 6.48333 4.44392 6.89583 4.78142 7.2375C5.11892 7.57917 5.5335 7.75 6.02517 7.75Z" fill="#1C1B1F"/>
</g>
</svg>
