<svg width="24" height="24" viewBox="0 0 24 24" fill="none" xmlns="http://www.w3.org/2000/svg">
<mask id="mask0_1079_567" style="mask-type:alpha" maskUnits="userSpaceOnUse" x="0" y="0" width="24" height="24">
<rect width="24" height="24" fill="#D9D9D9"/>
</mask>
<g mask="url(#mask0_1079_567)">
<path d="M18 22C17.1667 22 16.4583 21.7083 15.875 21.125C15.2917 20.5417 15 19.8333 15 19C15 18.8833 15.0083 18.7625 15.025 18.6375C15.0417 18.5125 15.0667 18.4 15.1 18.3L8.05 14.2C7.76667 14.45 7.45 14.6458 7.1 14.7875C6.75 14.9292 6.38333 15 6 15C5.16667 15 4.45833 14.7083 3.875 14.125C3.29167 13.5417 3 12.8333 3 12C3 11.1667 3.29167 10.4583 3.875 9.875C4.45833 9.29167 5.16667 9 6 9C6.38333 9 6.75 9.07083 7.1 9.2125C7.45 9.35417 7.76667 9.55 8.05 9.8L15.1 5.7C15.0667 5.6 15.0417 5.4875 15.025 5.3625C15.0083 5.2375 15 5.11667 15 5C15 4.16667 15.2917 3.45833 15.875 2.875C16.4583 2.29167 17.1667 2 18 2C18.8333 2 19.5417 2.29167 20.125 2.875C20.7083 3.45833 21 4.16667 21 5C21 5.83333 20.7083 6.54167 20.125 7.125C19.5417 7.70833 18.8333 8 18 8C17.6167 8 17.25 7.92917 16.9 7.7875C16.55 7.64583 16.2333 7.45 15.95 7.2L8.9 11.3C8.93333 11.4 8.95833 11.5125 8.975 11.6375C8.99167 11.7625 9 11.8833 9 12C9 12.1167 8.99167 12.2375 8.975 12.3625C8.95833 12.4875 8.93333 12.6 8.9 12.7L15.95 16.8C16.2333 16.55 16.55 16.3542 16.9 16.2125C17.25 16.0708 17.6167 16 18 16C18.8333 16 19.5417 16.2917 20.125 16.875C20.7083 17.4583 21 18.1667 21 19C21 19.8333 20.7083 20.5417 20.125 21.125C19.5417 21.7083 18.8333 22 18 22Z" fill="#1C1B1F"/>
</g>
<rect x="12" y="12" width="12" height="12" rx="6" fill="white"/>
<mask id="mask1_1079_567" style="mask-type:alpha" maskUnits="userSpaceOnUse" x="14" y="14" width="8" height="8">
<rect x="14" y="14" width="8" height="8" fill="#D9D9D9"/>
</mask>
<g mask="url(#mask1_1079_567)">
<path d="M17.3752 21.3337C17.2919 21.3337 17.2196 21.3059 17.1585 21.2503C17.0974 21.1948 17.0613 21.1253 17.0502 21.042L16.9502 20.267C16.878 20.2392 16.8099 20.2059 16.746 20.167C16.6821 20.1281 16.6196 20.0864 16.5585 20.042L15.8335 20.342C15.7557 20.3753 15.678 20.3795 15.6002 20.3545C15.5224 20.3295 15.4613 20.2809 15.4169 20.2087L14.8002 19.1337C14.7557 19.0614 14.7419 18.9837 14.7585 18.9003C14.7752 18.817 14.8169 18.7503 14.8835 18.7003L15.5085 18.2253C15.503 18.1864 15.5002 18.1489 15.5002 18.1128V17.8878C15.5002 17.8517 15.503 17.8142 15.5085 17.7753L14.8835 17.3003C14.8169 17.2503 14.7752 17.1837 14.7585 17.1003C14.7419 17.017 14.7557 16.9392 14.8002 16.867L15.4169 15.792C15.4613 15.7198 15.5224 15.6712 15.6002 15.6462C15.678 15.6212 15.7557 15.6253 15.8335 15.6587L16.5585 15.9587C16.6196 15.9142 16.6835 15.8725 16.7502 15.8337C16.8169 15.7948 16.8835 15.7614 16.9502 15.7337L17.0502 14.9587C17.0613 14.8753 17.0974 14.8059 17.1585 14.7503C17.2196 14.6948 17.2919 14.667 17.3752 14.667H18.6252C18.7085 14.667 18.7807 14.6948 18.8419 14.7503C18.903 14.8059 18.9391 14.8753 18.9502 14.9587L19.0502 15.7337C19.1224 15.7614 19.1905 15.7948 19.2544 15.8337C19.3182 15.8725 19.3807 15.9142 19.4419 15.9587L20.1669 15.6587C20.2446 15.6253 20.3224 15.6212 20.4002 15.6462C20.478 15.6712 20.5391 15.7198 20.5835 15.792L21.2002 16.867C21.2446 16.9392 21.2585 17.017 21.2419 17.1003C21.2252 17.1837 21.1835 17.2503 21.1169 17.3003L20.4919 17.7753C20.4974 17.8142 20.5002 17.8517 20.5002 17.8878V18.1128C20.5002 18.1489 20.4946 18.1864 20.4835 18.2253L21.1085 18.7003C21.1752 18.7503 21.2169 18.817 21.2335 18.9003C21.2502 18.9837 21.2363 19.0614 21.1919 19.1337L20.5752 20.2003C20.5307 20.2725 20.4682 20.3225 20.3877 20.3503C20.3071 20.3781 20.228 20.3753 20.1502 20.342L19.4419 20.042C19.3807 20.0864 19.3169 20.1281 19.2502 20.167C19.1835 20.2059 19.1169 20.2392 19.0502 20.267L18.9502 21.042C18.9391 21.1253 18.903 21.1948 18.8419 21.2503C18.7807 21.3059 18.7085 21.3337 18.6252 21.3337H17.3752ZM18.0169 19.167C18.3391 19.167 18.6141 19.0531 18.8419 18.8253C19.0696 18.5975 19.1835 18.3225 19.1835 18.0003C19.1835 17.6781 19.0696 17.4031 18.8419 17.1753C18.6141 16.9475 18.3391 16.8337 18.0169 16.8337C17.6891 16.8337 17.4127 16.9475 17.1877 17.1753C16.9627 17.4031 16.8502 17.6781 16.8502 18.0003C16.8502 18.3225 16.9627 18.5975 17.1877 18.8253C17.4127 19.0531 17.6891 19.167 18.0169 19.167Z" fill="#1C1B1F"/>
</g>
</svg>
