<svg width="18" height="18" viewBox="0 0 18 18" fill="none" xmlns="http://www.w3.org/2000/svg">
<mask id="mask0_1121_1356" style="mask-type:alpha" maskUnits="userSpaceOnUse" x="0" y="0" width="18" height="18">
<rect width="18" height="18" fill="#D9D9D9"/>
</mask>
<g mask="url(#mask0_1121_1356)">
<path d="M3.61449 8.84981C3.92218 7.84405 4.5229 6.77386 5.41665 5.63925C6.31039 4.50463 7.50485 3.2883 9.00004 1.99023C10.4952 3.2883 11.6897 4.50463 12.5834 5.63925C13.4772 6.77386 14.0779 7.84405 14.3856 8.84981H13.2C12.9125 8.07481 12.4188 7.24043 11.7188 6.34668C11.0188 5.45293 10.1125 4.49981 9.00004 3.48731C7.90004 4.49981 6.99691 5.45293 6.29066 6.34668C5.58441 7.24043 5.08754 8.07481 4.80004 8.84981H3.61449ZM14.5558 11.1185C14.4866 11.5483 14.363 11.957 14.1851 12.3445C14.0073 12.7319 13.7789 13.0867 13.5001 13.4088L11.8413 15.0604C11.5192 15.3392 11.1656 15.5645 10.7805 15.7361C10.3954 15.9077 9.99182 16.0219 9.56972 16.0786L14.5558 11.1185ZM11.3841 10.3498H12.9952L7.45386 15.8839C7.24328 15.831 7.03968 15.7712 6.84306 15.7043C6.64642 15.6375 6.45676 15.5498 6.27407 15.4411L11.3841 10.3498ZM7.45099 10.3498H9.06201L4.98465 14.4272C4.84524 14.2906 4.71519 14.1502 4.59452 14.006C4.47384 13.8618 4.36159 13.7075 4.25775 13.543L7.45099 10.3498ZM3.36353 10.3498H5.12454L3.57409 11.9002C3.50294 11.6445 3.45198 11.388 3.42122 11.1308C3.39044 10.8736 3.37121 10.6133 3.36353 10.3498Z" fill="#0FB04F"/>
</g>
</svg>
