<svg width="24" height="24" viewBox="0 0 24 24" fill="none" xmlns="http://www.w3.org/2000/svg">
<mask id="mask0_483_953" style="mask-type:alpha" maskUnits="userSpaceOnUse" x="0" y="0" width="24" height="24">
<rect width="24" height="24" fill="#D9D9D9"/>
</mask>
<g mask="url(#mask0_483_953)">
<path d="M12.0016 21.5019C10.6877 21.5019 9.45268 21.2526 8.29655 20.7539C7.1404 20.2552 6.13472 19.5785 5.2795 18.7237C4.42427 17.8688 3.74721 16.8636 3.24833 15.7079C2.74944 14.5523 2.5 13.3175 2.5 12.0036C2.5 10.6897 2.74937 9.45464 3.24812 8.2985C3.74688 7.14235 4.42375 6.13667 5.27875 5.28145C6.13375 4.42622 7.13917 3.74916 8.295 3.25028C9.45082 2.7514 10.6858 2.50195 12 2.50195H12.75V10.7097C12.9859 10.8545 13.1698 11.0352 13.3019 11.2517C13.4339 11.4681 13.5 11.7186 13.5 12.0031C13.5 12.4113 13.3522 12.7631 13.0567 13.0586C12.7612 13.3541 12.4089 13.5019 12 13.5019C11.591 13.5019 11.2388 13.3541 10.9433 13.0586C10.6478 12.7631 10.5 12.4117 10.5 12.0042C10.5 11.7203 10.566 11.4672 10.6981 11.2449C10.8301 11.0227 11.0141 10.8443 11.25 10.7097V8.08845C10.3192 8.2641 9.54485 8.71571 8.9269 9.44328C8.30895 10.1708 7.99998 11.0237 7.99998 12.0019C7.99998 13.1019 8.39164 14.0436 9.17498 14.8269C9.95831 15.6103 10.9 16.0019 12 16.0019C13.1 16.0019 14.0416 15.6103 14.825 14.8269C15.6083 14.0436 16 13.1019 16 12.0019C16 11.4019 15.8791 10.8478 15.6375 10.3394C15.3958 9.8311 15.0666 9.38526 14.65 9.00193L15.7192 7.93273C16.264 8.43785 16.6971 9.03919 17.0182 9.73675C17.3394 10.4343 17.5 11.1894 17.5 12.0019C17.5 13.5297 16.9655 14.8283 15.8965 15.8977C14.8275 16.9672 13.5294 17.5019 12.0023 17.5019C10.4751 17.5019 9.17628 16.9672 8.10578 15.8977C7.03526 14.8283 6.5 13.5297 6.5 12.0019C6.5 10.5981 6.95417 9.38368 7.8625 8.35868C8.77083 7.33368 9.9 6.73336 11.25 6.55773V4.0327C9.20897 4.21859 7.49037 5.06955 6.0942 6.58558C4.69805 8.1016 3.99998 9.90705 3.99998 12.0019C3.99998 14.2353 4.77498 16.1269 6.32498 17.6769C7.87498 19.2269 9.76664 20.0019 12 20.0019C14.2333 20.0019 16.125 19.2269 17.675 17.6769C19.225 16.1269 20 14.2353 20 12.0019C20 10.8519 19.775 9.77693 19.325 8.77693C18.875 7.77693 18.2583 6.91026 17.475 6.17693L18.5442 5.10773C19.4557 5.97951 20.1762 7.00545 20.7057 8.18555C21.2352 9.36564 21.5 10.6368 21.5 11.9991C21.5 13.3138 21.2506 14.5492 20.752 15.7054C20.2533 16.8615 19.5765 17.8672 18.7217 18.7224C17.8669 19.5776 16.8616 20.2547 15.706 20.7536C14.5504 21.2525 13.3156 21.5019 12.0016 21.5019Z" fill="#1C1B1F"/>
</g>
</svg>
