<svg width="24" height="24" viewBox="0 0 24 24" fill="none" xmlns="http://www.w3.org/2000/svg">
<mask id="mask0_483_1011" style="mask-type:alpha" maskUnits="userSpaceOnUse" x="0" y="0" width="24" height="24">
<rect width="24" height="24" fill="#D9D9D9"/>
</mask>
<g mask="url(#mask0_483_1011)">
<path d="M8.62498 20.5C7.19934 20.5 5.98877 20.0022 4.99327 19.0067C3.99776 18.0112 3.5 16.8006 3.5 15.375C3.5 14.6891 3.63045 14.0333 3.89135 13.4077C4.15225 12.782 4.52372 12.2282 5.00577 11.7462L11.7462 5.00578C12.2282 4.52373 12.782 4.15225 13.4077 3.89135C14.0333 3.63045 14.6891 3.5 15.375 3.5C16.8006 3.5 18.0112 3.99776 19.0067 4.99328C20.0022 5.98878 20.5 7.19934 20.5 8.62498C20.5 9.31088 20.3695 9.96664 20.1086 10.5923C19.8477 11.2179 19.4762 11.7718 18.9942 12.2538L12.2538 18.9942C11.7718 19.4762 11.2179 19.8477 10.5923 20.1086C9.96664 20.3695 9.31088 20.5 8.62498 20.5ZM15.1019 14.0231L17.95 11.2C18.2833 10.8666 18.5416 10.475 18.725 10.025C18.9083 9.57498 19 9.10831 19 8.62498C19 7.62498 18.6458 6.77081 17.9375 6.06248C17.2291 5.35414 16.375 4.99998 15.375 4.99998C14.8916 4.99998 14.425 5.09164 13.975 5.27498C13.525 5.45831 13.1333 5.71664 12.8 6.04998L9.97688 8.89808L15.1019 14.0231ZM8.62498 19C9.10831 19 9.57498 18.9083 10.025 18.725C10.475 18.5416 10.8666 18.2833 11.2 17.95L14.0231 15.1019L8.89808 9.97688L6.04998 12.8C5.71664 13.1333 5.45831 13.525 5.27497 13.975C5.09164 14.425 4.99997 14.8916 4.99997 15.375C4.99997 16.375 5.35414 17.2291 6.06247 17.9375C6.77081 18.6458 7.62498 19 8.62498 19Z" fill="#272727"/>
</g>
</svg>
