<svg width="24" height="24" viewBox="0 0 24 24" fill="none" xmlns="http://www.w3.org/2000/svg">
<mask id="mask0_483_946" style="mask-type:alpha" maskUnits="userSpaceOnUse" x="0" y="0" width="24" height="24">
<rect width="24" height="24" fill="#D9D9D9"/>
</mask>
<g mask="url(#mask0_483_946)">
<path d="M13.9539 19.9979V18.4738C15.3364 18.0224 16.4501 17.203 17.295 16.0154C18.1398 14.8279 18.5623 13.4891 18.5623 11.9989C18.5623 10.5088 18.1398 9.17 17.295 7.98245C16.4501 6.79489 15.3364 5.97545 13.9539 5.52413V4C15.7383 4.4904 17.192 5.4731 18.3152 6.94809C19.4384 8.42306 20 10.1067 20 11.9989C20 13.8912 19.4384 15.5748 18.3152 17.0498C17.192 18.5248 15.7383 19.5075 13.9539 19.9979ZM4 14.4818V9.56524H7.55759L11.6682 5.34834V18.6987L7.55759 14.4818H4ZM13.9539 15.6164V8.38146C14.6003 8.74201 15.0999 9.24974 15.4525 9.90466C15.8052 10.5596 15.9816 11.2659 15.9816 12.0235C15.9816 12.7711 15.8037 13.4667 15.4479 14.1102C15.0922 14.7538 14.5942 15.2559 13.9539 15.6164ZM10.2304 8.92605L8.16956 11.0402H5.43775V13.0069H8.16956L10.2304 15.121V8.92605Z" fill="#1C1B1F"/>
</g>
</svg>
