<svg width="24" height="24" viewBox="0 0 24 24" fill="none" xmlns="http://www.w3.org/2000/svg">
<mask id="mask0_336_901" style="mask-type:alpha" maskUnits="userSpaceOnUse" x="0" y="0" width="24" height="24">
<rect width="24" height="24" fill="#D9D9D9"/>
</mask>
<g mask="url(#mask0_336_901)">
<path d="M14.0384 20.1095V18.5595C15.4807 18.1005 16.6425 17.2672 17.5239 16.0595C18.4053 14.8518 18.8461 13.4903 18.8461 11.9749C18.8461 10.4595 18.4053 9.09799 17.5239 7.89031C16.6425 6.68261 15.4807 5.84927 14.0384 5.39031V3.84033C15.8999 4.33905 17.4165 5.33841 18.5883 6.83841C19.7601 8.33839 20.346 10.0506 20.346 11.9749C20.346 13.8993 19.7601 15.6114 18.5883 17.1114C17.4165 18.6114 15.8999 19.6108 14.0384 20.1095ZM3.65381 14.4999V9.49993H7.36531L11.6537 5.21153V18.7883L7.36531 14.4999H3.65381ZM14.0384 15.6537V8.29608C14.7127 8.66275 15.2339 9.17909 15.6018 9.84511C15.9698 10.5111 16.1537 11.2294 16.1537 11.9999C16.1537 12.7602 15.9682 13.4675 15.597 14.122C15.2259 14.7765 14.7063 15.2871 14.0384 15.6537ZM10.1538 8.84991L8.00376 10.9999H5.15376V12.9999H8.00376L10.1538 15.1499V8.84991Z" fill="#1C1B1F"/>
</g>
</svg>
